<svg width="17" height="123" fill="none" xmlns="http://www.w3.org/2000/svg"><path stroke="#38393C" stroke-width="2" d="M8 123V78"/><path d="M14.544 9.048c-.843-.671-1.698-1.078-2.53-.408l-.497.406c-.364.294-1.04 1.669-3.654-1.134C5.25 5.113 6.805 4.678 7.17 4.386l.5-.406c.828-.672.515-1.518-.082-2.39l-.36-.527c-.6-.87-1.253-1.44-2.083-.769l-.45.366a3.906 3.906 0 00-1.64 2.597c-.3 1.845.644 3.959 2.808 6.278 2.16 2.32 4.277 3.485 6.281 3.465 1.666-.017 2.672-.85 2.986-1.153l.45-.366c.828-.67.314-1.353-.53-2.026l-.506-.407zM1.338 36.493l6.375 3.425c.214.114.491.169.77.169s.556-.055.77-.17l6.375-3.424c.416-.223.808-1.093.046-1.093H1.293c-.763 0-.37.87.045 1.093zm14.483 1.873l-6.568 3.423c-.289.15-.491.169-.77.169s-.481-.018-.77-.17c-.29-.15-6.063-3.177-6.535-3.423-.331-.174-.328.03-.328.186v6.199c0 .357.481.85.85.85h13.6c.369 0 .85-.493.85-.85v-6.198c0-.157.003-.36-.329-.186z" fill="#8A8D97"/></svg>