<svg width="23" height="23" fill="none" xmlns="http://www.w3.org/2000/svg"><path d="M20.424 16.008c-1.49-1.188-3.004-1.908-4.476-.721l-.88.717c-.643.52-1.84 2.953-6.464-2.005-4.623-4.952-1.872-5.723-1.228-6.24l.885-.717c1.464-1.19.912-2.687-.145-4.228l-.637-.933C6.417.343 5.262-.667 3.793.52l-.794.646A6.91 6.91 0 00.096 5.762c-.53 3.265 1.14 7.004 4.97 11.107 3.822 4.105 7.566 6.166 11.112 6.13 2.947-.03 4.726-1.503 5.283-2.039l.797-.647c1.464-1.186.554-2.395-.937-3.586l-.897-.719z" fill="#4970BA"/></svg>