<svg width="168" height="61" fill="none" xmlns="http://www.w3.org/2000/svg"><path d="M77.612 35.985h-1.015V24.033h-8.004v11.952h-1.015v-12.91h10.034v12.91zm3.036-6.455c0-1.882.615-3.456 1.845-4.722 1.23-1.267 2.773-1.9 4.63-1.9 1.844 0 3.38.627 4.61 1.882 1.242 1.242 1.863 2.822 1.863 4.74 0 1.881-.62 3.461-1.863 4.74-1.23 1.254-2.766 1.881-4.61 1.881-1.845 0-3.388-.62-4.63-1.863-1.23-1.241-1.845-2.828-1.845-4.758zm1.07 0c0 1.598.516 2.945 1.55 4.04 1.045 1.081 2.33 1.622 3.854 1.622 1.574 0 2.865-.54 3.874-1.623 1.02-1.094 1.53-2.44 1.53-4.04 0-1.635-.522-2.981-1.567-4.038-1.033-1.083-2.312-1.624-3.837-1.624-1.537 0-2.822.541-3.855 1.623-1.032 1.07-1.549 2.417-1.549 4.04zm23.596 6.455H104.3V24.033h-5.423l-.221 2.435c-.283 3.259-.72 5.656-1.31 7.193-.233.664-.528 1.18-.885 1.55-.32.344-.627.572-.922.682-.295.099-.64.13-1.033.092l.018-1.014c.259.012.48-.025.664-.11.185-.087.4-.284.646-.591.283-.357.535-.842.756-1.457.529-1.5.91-3.886 1.144-7.157l.184-2.582h7.396v12.911zm13.679-11.25l-8.687 11.25h-.904v-12.91h1.015v11.25l8.687-11.25h.904v12.91h-1.015v-11.25zm7.671 11.25h-2.951v-12.91h2.969l3.984 5.44 3.763-5.44h2.785v12.91h-2.951V27.76l-3.597 5.035h-.424l-3.578-4.98v8.171zm15.182 0h-2.97l5.368-12.91h2.637l5.367 12.91h-3.154l-1.069-2.711h-5.109l-1.07 2.711zm5.072-5.478l-1.439-3.652-1.457 3.652h2.896zm14.114 5.626h-2.951v-1.734c-1.747-.012-3.142-.461-4.187-1.346-1.033-.886-1.55-2.121-1.55-3.708 0-1.574.523-2.79 1.568-3.652 1.045-.873 2.435-1.34 4.169-1.401v-1.365h2.951v1.365c1.733.036 3.123.504 4.168 1.401 1.07.91 1.605 2.128 1.605 3.652 0 1.574-.529 2.804-1.586 3.69-1.058.897-2.454 1.352-4.187 1.364v1.734zm2.637-6.788c0-.7-.221-1.26-.664-1.678-.43-.418-1.088-.64-1.973-.664v4.685c.934-.012 1.604-.21 2.01-.59.418-.382.627-.966.627-1.753zm-8.189 0c0 1.525.867 2.306 2.601 2.343v-4.685c-.861.024-1.513.246-1.956.664-.43.418-.645.977-.645 1.678z" fill="#fff"/><path opacity=".9" d="M10.593 46.58c-1.728-4.161-.648-14.136.107-18.603C15.18 15.633 33.798.105 46.388 16.636c13.424 17.625-10.187 38.932-19.497 39.56-7.236.488-14.139-4.414-16.298-9.616z" fill="#62D0FF"/><path opacity=".9" d="M18.634 42.213c-1.728-4.16-8.935 1.934-9.01-3.477C8.349 17.854 27.11.376 39.694 11.97c17.909 16.502 1.848 42.203-7.461 42.83-7.237.489-11.44-7.385-13.599-12.587z" fill="#54B934"/><path opacity=".9" d="M46.407 44.258c-7.019 6.095-24.521-.662-32.395-4.803-2.788-1.378-4.348-6.62-6.551-11.958-2.203-5.34-3.586-10.636 3.514-15.006 7.1-4.37 32.182 7.135 35.656 12.674 3.474 5.538 8.55 11.474-.224 19.093z" fill="#ED49AA"/><path opacity=".8" d="M7.474 28.399c-1.345 11.538 2.935 12.855 5.243 12.072 11.335.02 32.694-4.23 27.445-21.403C33.6-2.398 20.519 7.344 17.678 9.002 14.837 10.66 9.154 13.975 7.474 28.4z" fill="#FFD23C"/><path opacity=".9" d="M42.166 45.303c-13.553 7.558-25.813 2.517-28.352.405-4.641-4.111-1.568-12.95-3.962-17.008-2.85-4.831-.35-13.93 11.293-17.629 17.966-5.71 39.902 23.704 21.021 34.232z" fill="#000" fill-opacity=".9"/><path d="M34.302 34.7c-.326 0-.635-.03-.929-.095a2.466 2.466 0 01-.756-.317 1.653 1.653 0 01-.504-.509 1.352 1.352 0 01-.189-.73v-3.243l-3.133 3.56-3.165-3.56v3.242c0 .286-.063.53-.19.731a1.431 1.431 0 01-.503.509 2.47 2.47 0 01-.756.318 4.456 4.456 0 01-.944.095h-.237v-7.962h.504c.137 0 .31.005.52.015.22 0 .446.032.677.096.241.063.483.148.724.254.242.106.462.265.662.477l2.708 2.86 2.677-2.86a1.88 1.88 0 01.645-.477 4.97 4.97 0 01.725-.254c.24-.064.472-.096.692-.096.22-.01.4-.015.536-.015h.488V34.7h-.252z" fill="#fff"/><path d="M34.302 34.7c-.326 0-.635-.03-.929-.095a2.466 2.466 0 01-.756-.317 1.653 1.653 0 01-.504-.509 1.352 1.352 0 01-.189-.73v-3.243l-3.133 3.56-3.165-3.56v3.242c0 .286-.063.53-.19.731a1.431 1.431 0 01-.503.509 2.47 2.47 0 01-.756.318 4.456 4.456 0 01-.944.095h-.237v-7.962h.504c.137 0 .31.005.52.015.22 0 .446.032.677.096.241.063.483.148.724.254.242.106.462.265.662.477l2.708 2.86 2.677-2.86a1.88 1.88 0 01.645-.477 4.97 4.97 0 01.725-.254c.24-.064.472-.096.692-.096.22-.01.4-.015.536-.015h.488V34.7h-.252z" fill="#fff"/></svg>