<svg width="318" height="89" fill="none" xmlns="http://www.w3.org/2000/svg"><path d="M102.86 66h-.66v-7.776h-5.208V66h-.66v-8.4h6.528V66zm2.78 2.4h-.624v-7.8h.624v.72a2.39 2.39 0 01.864-.588c.368-.16.74-.24 1.116-.24.768 0 1.38.252 1.836.756.456.504.684 1.16.684 1.968 0 .84-.256 1.532-.768 2.076-.52.544-1.188.816-2.004.816-.728 0-1.304-.152-1.728-.456V68.4zm1.812-7.32c-.352 0-.696.08-1.032.24-.328.16-.588.36-.78.6v3.108a2.978 2.978 0 001.68.492c.64 0 1.16-.212 1.56-.636.4-.424.6-.968.6-1.632 0-.664-.18-1.192-.54-1.584-.36-.392-.856-.588-1.488-.588zm6.536 5.028c-.832 0-1.512-.264-2.04-.792s-.792-1.2-.792-2.016c0-.816.264-1.488.792-2.016s1.208-.792 2.04-.792c.832 0 1.512.264 2.04.792s.792 1.2.792 2.016c0 .816-.264 1.488-.792 2.016s-1.208.792-2.04.792zm0-.588c.648 0 1.168-.204 1.56-.612.408-.416.612-.952.612-1.608 0-.648-.204-1.18-.612-1.596-.408-.416-.928-.624-1.56-.624-.624 0-1.144.208-1.56.624-.408.416-.612.948-.612 1.596 0 .648.204 1.18.612 1.596.408.416.928.624 1.56.624zm8.465-4.02l-3.6 4.5h-.624v-5.4h.624v4.5l3.6-4.5h.624V66h-.624v-4.5zm4.062 4.608c-.368 0-.776-.068-1.224-.204-.424-.128-.724-.3-.9-.516l.324-.48c.208.192.468.344.78.456.32.104.628.156.924.156.504 0 .908-.1 1.212-.3.304-.2.456-.468.456-.804 0-.28-.112-.5-.336-.66-.224-.16-.528-.24-.912-.24h-.912V63h.852c.304 0 .564-.096.78-.288a.899.899 0 00.324-.696c0-.304-.12-.536-.36-.696-.24-.16-.576-.24-1.008-.24-.632 0-1.196.2-1.692.6l-.252-.48c.456-.472 1.132-.708 2.028-.708.616 0 1.092.128 1.428.384.344.248.516.592.516 1.032 0 .632-.324 1.064-.972 1.296v.024c.368.032.656.168.864.408.208.232.312.52.312.864 0 .496-.204.888-.612 1.176-.408.288-.948.432-1.62.432zm3.708-.108v-5.4c.264 0 .52-.004.768-.012.512-.016.836-.024.972-.024 1.488 0 2.232.464 2.232 1.392 0 .312-.1.584-.3.816-.192.224-.456.364-.792.42v.024c.864.128 1.296.56 1.296 1.296 0 1.016-.804 1.524-2.412 1.524-.104 0-.42-.008-.948-.024a26.956 26.956 0 00-.816-.012zm1.92-2.484h-1.296v1.908c.624.016 1.028.024 1.212.024 1.12 0 1.68-.332 1.68-.996 0-.624-.532-.936-1.596-.936zm-.108-2.364c-.264 0-.66.008-1.188.024V63h1.428c.392 0 .7-.084.924-.252a.842.842 0 00.336-.696c0-.6-.5-.9-1.5-.9zm6.293 4.956c-.832 0-1.512-.264-2.04-.792s-.792-1.2-.792-2.016c0-.816.264-1.488.792-2.016s1.208-.792 2.04-.792c.832 0 1.512.264 2.04.792s.792 1.2.792 2.016c0 .816-.264 1.488-.792 2.016s-1.208.792-2.04.792zm0-.588c.648 0 1.168-.204 1.56-.612.408-.416.612-.952.612-1.608 0-.648-.204-1.18-.612-1.596-.408-.416-.928-.624-1.56-.624-.624 0-1.144.208-1.56.624-.408.416-.612.948-.612 1.596 0 .648.204 1.18.612 1.596.408.416.928.624 1.56.624zm3.767 1.848h-.588v-1.956h.672c.208-.264.392-.692.552-1.284a9.63 9.63 0 00.324-2.004l.084-1.524h3.444v4.812h.9v1.956h-.588V66h-4.8v1.368zm1.632-6.18l-.072 1.176a9.9 9.9 0 01-.336 1.92c-.152.528-.312.904-.48 1.128h3.12v-4.224h-2.232zm8.992 3.588l.312.456c-.216.28-.508.496-.876.648-.36.152-.748.228-1.164.228-.84 0-1.528-.256-2.064-.768-.528-.512-.792-1.192-.792-2.04 0-.792.256-1.456.768-1.992a2.552 2.552 0 011.92-.816c.928 0 1.628.224 2.1.672l-.3.504c-.424-.392-.992-.588-1.704-.588-.576 0-1.076.212-1.5.636-.416.416-.624.944-.624 1.584 0 .672.212 1.212.636 1.62.424.4.96.6 1.608.6.696 0 1.256-.248 1.68-.744zm2.872-3.552h-2.148V60.6h4.92v.624h-2.148V66h-.624v-4.776zM159.342 66v-5.4c.264 0 .52-.004.768-.012.512-.016.836-.024.972-.024 1.488 0 2.232.464 2.232 1.392 0 .312-.1.584-.3.816-.192.224-.456.364-.792.42v.024c.864.128 1.296.56 1.296 1.296 0 1.016-.804 1.524-2.412 1.524-.104 0-.42-.008-.948-.024a26.956 26.956 0 00-.816-.012zm1.92-2.484h-1.296v1.908c.624.016 1.028.024 1.212.024 1.12 0 1.68-.332 1.68-.996 0-.624-.532-.936-1.596-.936zm-.108-2.364c-.264 0-.66.008-1.188.024V63h1.428c.392 0 .7-.084.924-.252a.842.842 0 00.336-.696c0-.6-.5-.9-1.5-.9zm6.293 4.956c-.832 0-1.512-.264-2.04-.792s-.792-1.2-.792-2.016c0-.816.264-1.488.792-2.016s1.208-.792 2.04-.792c.832 0 1.512.264 2.04.792s.792 1.2.792 2.016c0 .816-.264 1.488-.792 2.016s-1.208.792-2.04.792zm0-.588c.648 0 1.168-.204 1.56-.612.408-.416.612-.952.612-1.608 0-.648-.204-1.18-.612-1.596-.408-.416-.928-.624-1.56-.624-.624 0-1.144.208-1.56.624-.408.416-.612.948-.612 1.596 0 .648.204 1.18.612 1.596.408.416.928.624 1.56.624zm7.569.48h-.624v-5.4h.588l2.244 3.012 2.16-3.012h.564V66h-.624v-4.452l-2.1 2.916h-.036l-2.172-2.916V66zm6.889-4.5l-.168-.516a3.232 3.232 0 011.716-.492c.704 0 1.212.176 1.524.528.32.352.48.896.48 1.632V66h-.624v-.828c-.44.6-1.056.9-1.848.9-.504 0-.908-.144-1.212-.432-.304-.296-.456-.688-.456-1.176 0-.528.192-.94.576-1.236.376-.296.868-.444 1.476-.444s1.096.136 1.464.408c0-.56-.04-.988-.12-1.284-.064-.288-.196-.492-.396-.612-.192-.12-.492-.192-.9-.216-.488 0-.992.14-1.512.42zm1.272 3.984c.672 0 1.224-.284 1.656-.852v-.9c-.392-.288-.86-.432-1.404-.432-.408 0-.752.1-1.032.3-.28.2-.42.476-.42.828 0 .32.112.576.336.768.224.192.512.288.864.288zm8.376.516h-.624v-4.776h-2.28l-.072 1.176c-.104 1.52-.356 2.528-.756 3.024-.32.416-.716.624-1.188.624l-.048-.612c.208 0 .404-.096.588-.288.44-.408.708-1.364.804-2.868l.084-1.68h3.492V66zm3.268 0h-1.488v-5.4h.624v1.812h.936c1.424 0 2.136.592 2.136 1.776 0 .56-.18 1.004-.54 1.332-.36.32-.916.48-1.668.48zm-.036-3h-.828v2.412h.816c.568 0 .976-.1 1.224-.3.248-.2.372-.504.372-.912 0-.8-.528-1.2-1.584-1.2zm4.104 3h-.624v-5.4h.624V66zm5.545-5.4h.732l-2.028 2.616L205.286 66h-.768l-1.848-2.388L200.822 66h-.732l2.148-2.76-2.028-2.64h.768l1.716 2.232 1.74-2.232zm4.925.9l-.168-.516a3.232 3.232 0 011.716-.492c.704 0 1.212.176 1.524.528.32.352.48.896.48 1.632V66h-.624v-.828c-.44.6-1.056.9-1.848.9-.504 0-.908-.144-1.212-.432-.304-.296-.456-.688-.456-1.176 0-.528.192-.94.576-1.236.376-.296.868-.444 1.476-.444s1.096.136 1.464.408c0-.56-.04-.988-.12-1.284-.064-.288-.196-.492-.396-.612-.192-.12-.492-.192-.9-.216-.488 0-.992.14-1.512.42zm1.272 3.984c.672 0 1.224-.284 1.656-.852v-.9c-.392-.288-.86-.432-1.404-.432-.408 0-.752.1-1.032.3-.28.2-.42.476-.42.828 0 .32.112.576.336.768.224.192.512.288.864.288zm4.572 2.916h-.624v-7.8h.624v.72a2.39 2.39 0 01.864-.588c.368-.16.74-.24 1.116-.24.768 0 1.38.252 1.836.756.456.504.684 1.16.684 1.968 0 .84-.256 1.532-.768 2.076-.52.544-1.188.816-2.004.816-.728 0-1.304-.152-1.728-.456V68.4zm1.812-7.32c-.352 0-.696.08-1.032.24-.328.16-.588.36-.78.6v3.108a2.978 2.978 0 001.68.492c.64 0 1.16-.212 1.56-.636.4-.424.6-.968.6-1.632 0-.664-.18-1.192-.54-1.584-.36-.392-.856-.588-1.488-.588zm7.587-.48h.732l-2.028 2.616L225.454 66h-.768l-1.848-2.388L220.99 66h-.732l2.148-2.76-2.028-2.64h.768l1.716 2.232 1.74-2.232zm6.278.9l-3.6 4.5h-.624v-5.4h.624v4.5l3.6-4.5h.624V66h-.624v-4.5zm3.75-.276h-2.148V60.6h4.92v.624h-2.148V66h-.624v-4.776zm7.835 3.636l.204.48c-.488.512-1.152.768-1.992.768-.864 0-1.556-.256-2.076-.768-.528-.512-.792-1.192-.792-2.04 0-.816.24-1.488.72-2.016.488-.528 1.16-.792 2.016-.792.696 0 1.28.224 1.752.672.464.44.696 1.028.696 1.764 0 .192-.012.36-.036.504h-4.452c.024.648.236 1.16.636 1.536.4.368.924.552 1.572.552.752 0 1.336-.22 1.752-.66zm-1.98-3.78c-.576 0-1.044.168-1.404.504-.352.336-.556.78-.612 1.332h3.888c-.008-.568-.18-1.016-.516-1.344-.336-.328-.788-.492-1.356-.492zm7.481-.48h.804l-2.664 2.58 2.88 2.82h-.84l-2.796-2.784 2.616-2.616zM244.99 66h-.624v-5.4h.624V66zm6.424-4.776h-2.148V60.6h4.92v.624h-2.148V66h-.624v-4.776zm7.898-.624h.708l-2.184 5.4c-.392.952-.732 1.584-1.02 1.896-.288.336-.624.504-1.008.504-.296 0-.604-.092-.924-.276l.204-.48c.248.12.46.18.636.18.272 0 .516-.12.732-.36.216-.232.44-.624.672-1.176l.12-.288-2.664-5.4h.744l1.848 3.816.384.84c.008-.032.108-.32.3-.864l1.452-3.792zm2.334 7.8h-.624v-7.8h.624v.72a2.39 2.39 0 01.864-.588c.368-.16.74-.24 1.116-.24.768 0 1.38.252 1.836.756.456.504.684 1.16.684 1.968 0 .84-.256 1.532-.768 2.076-.52.544-1.188.816-2.004.816-.728 0-1.304-.152-1.728-.456V68.4zm1.812-7.32c-.352 0-.696.08-1.032.24-.328.16-.588.36-.78.6v3.108a2.978 2.978 0 001.68.492c.64 0 1.16-.212 1.56-.636.4-.424.6-.968.6-1.632 0-.664-.18-1.192-.54-1.584-.36-.392-.856-.588-1.488-.588zm8.84 4.92h-.624v-2.448h-3.504V66h-.624v-5.4h.624v2.364h3.504V60.6h.624V66zm3.261 0h-1.488v-5.4h.624v1.812h.936c1.424 0 2.136.592 2.136 1.776 0 .56-.18 1.004-.54 1.332-.36.32-.916.48-1.668.48zm-.036-3h-.828v2.412h.816c.568 0 .976-.1 1.224-.3.248-.2.372-.504.372-.912 0-.8-.528-1.2-1.584-1.2zm4.104 3h-.624v-5.4h.624V66zm5.545-5.4h.732l-2.028 2.616L286.024 66h-.768l-1.848-2.388L281.56 66h-.732l2.148-2.76-2.028-2.64h.768l1.716 2.232 1.74-2.232zm8.105 7.8h-.624v-2.292h-.18c-.888 0-1.6-.26-2.136-.78-.528-.528-.792-1.204-.792-2.028 0-.768.264-1.428.792-1.98.536-.552 1.244-.828 2.124-.828h.192V57.6h.624v2.892h.204c.864 0 1.564.268 2.1.804.536.528.804 1.196.804 2.004 0 .816-.26 1.492-.78 2.028-.52.52-1.228.78-2.124.78h-.204V68.4zm-3.072-5.1c0 .648.204 1.184.612 1.608.424.408.988.612 1.692.612h.144v-4.44h-.204c-.688 0-1.236.212-1.644.636-.4.424-.6.952-.6 1.584zm3.276-2.22h-.204v4.44h.156c.712 0 1.272-.2 1.68-.6.408-.408.612-.948.612-1.62 0-.616-.204-1.14-.612-1.572-.4-.432-.944-.648-1.632-.648zm6.757 5.028c-.832 0-1.512-.264-2.04-.792s-.792-1.2-.792-2.016c0-.816.264-1.488.792-2.016s1.208-.792 2.04-.792c.832 0 1.512.264 2.04.792s.792 1.2.792 2.016c0 .816-.264 1.488-.792 2.016s-1.208.792-2.04.792zm0-.588c.648 0 1.168-.204 1.56-.612.408-.416.612-.952.612-1.608 0-.648-.204-1.18-.612-1.596-.408-.416-.928-.624-1.56-.624-.624 0-1.144.208-1.56.624-.408.416-.612.948-.612 1.596 0 .648.204 1.18.612 1.596.408.416.928.624 1.56.624zm4.864 2.88h-.624v-7.8h.624v.72a2.39 2.39 0 01.864-.588c.368-.16.74-.24 1.116-.24.768 0 1.38.252 1.836.756.456.504.684 1.16.684 1.968 0 .84-.256 1.532-.768 2.076-.52.544-1.188.816-2.004.816-.728 0-1.304-.152-1.728-.456V68.4zm1.812-7.32c-.352 0-.696.08-1.032.24-.328.16-.588.36-.78.6v3.108a2.978 2.978 0 001.68.492c.64 0 1.16-.212 1.56-.636.4-.424.6-.968.6-1.632 0-.664-.18-1.192-.54-1.584-.36-.392-.856-.588-1.488-.588zm4.713 4.92h-.624v-5.4h.588l2.244 3.012 2.16-3.012h.564V66h-.624v-4.452l-2.1 2.916h-.036l-2.172-2.916V66z" fill="#fff"/><path d="M102.86 66v.15h.15V66h-.15zm-.66 0h-.15v.15h.15V66zm0-7.776h.15v-.15h-.15v.15zm-5.208 0v-.15h-.15v.15h.15zm0 7.776v.15h.15V66h-.15zm-.66 0h-.15v.15h.15V66zm0-8.4v-.15h-.15v.15h.15zm6.528 0h.15v-.15h-.15v.15zm0 8.25h-.66v.3h.66v-.3zm-.51.15v-7.776h-.3V66h.3zm-.15-7.926h-5.208v.3h5.208v-.3zm-5.358.15V66h.3v-7.776h-.3zm.15 7.626h-.66v.3h.66v-.3zm-.51.15v-8.4h-.3V66h.3zm-.15-8.25h6.528v-.3h-6.528v.3zm6.378-.15V66h.3v-8.4h-.3zm2.93 10.8v.15h.15v-.15h-.15zm-.624 0h-.15v.15h.15v-.15zm0-7.8v-.15h-.15v.15h.15zm.624 0h.15v-.15h-.15v.15zm0 .72h-.15v.39l.261-.29-.111-.1zm.863-.588l.059.138h.001l-.06-.138zm2.953.516l.111-.1-.111.1zm-.084 4.044l.108.104.001-.001-.109-.103zm-3.732.36l.087-.122-.237-.17v.292h.15zm.78-4.332l-.065-.135h-.001l.066.135zm-.78.6l-.118-.094-.032.041v.053h.15zm0 3.108h-.15v.08l.067.045.083-.125zm3.24-.144l.109.103-.109-.103zm.06-3.216l-.111.102.111-.102zm-3.3 6.582h-.624v.3h.624v-.3zm-.474.15v-7.8h-.3v7.8h.3zm-.15-7.65h.624v-.3h-.624v.3zm.474-.15v.72h.3v-.72h-.3zm.261.82a2.25 2.25 0 01.811-.55l-.117-.276a2.535 2.535 0 00-.917.626l.223.2zm.812-.55a2.628 2.628 0 011.057-.228v-.3c-.398 0-.791.085-1.176.252l.119.276zm1.057-.228c.731 0 1.301.238 1.724.707l.223-.202c-.489-.54-1.143-.805-1.947-.805v.3zm1.724.707c.427.471.646 1.089.646 1.867h.3c0-.838-.238-1.532-.723-2.069l-.223.202zm.646 1.867c0 .807-.245 1.46-.728 1.973l.219.206c.541-.576.809-1.306.809-2.179h-.3zm-.727 1.972c-.489.512-1.117.77-1.895.77v.3c.853 0 1.561-.286 2.112-.862l-.217-.208zm-1.895.77c-.709 0-1.251-.148-1.641-.428l-.175.244c.458.328 1.068.484 1.816.484v-.3zm-1.878-.306V68.4h.3v-2.748h-.3zm1.961-4.722c-.375 0-.741.086-1.096.255l.129.27c.317-.15.639-.225.967-.225v-.3zm-1.097.255a2.38 2.38 0 00-.832.641l.235.188c.175-.22.417-.407.728-.56l-.131-.269zm-.864.735v3.108h.3V61.92h-.3zm.067 3.233a3.127 3.127 0 001.762.517v-.3a2.827 2.827 0 01-1.597-.467l-.165.25zm1.762.517c.677 0 1.238-.226 1.67-.683l-.219-.206c-.368.39-.847.589-1.451.589v.3zm1.67-.683c.43-.456.641-1.038.641-1.735h-.3c0 .631-.19 1.137-.56 1.53l.219.205zm.641-1.735c0-.692-.189-1.26-.58-1.686l-.221.203c.329.358.501.847.501 1.483h.3zm-.58-1.686c-.394-.428-.933-.636-1.599-.636v.3c.599 0 1.052.184 1.378.54l.221-.204zm2.898 3.75l.106-.106-.106.106zm0-4.032l.106.106-.106-.106zm4.08 0l-.106.106.106-.106zm0 4.032l-.106-.106.106.106zm-.48-.408l-.107-.105-.001.001.108.104zm0-3.204l-.107.105.107-.105zm-3.12 0l-.106-.106-.001.001.107.105zm0 3.192l.107-.105-.107.105zm1.56 1.062c-.797 0-1.437-.251-1.934-.748l-.212.212c.559.56 1.279.836 2.146.836v-.3zm-1.934-.748c-.497-.497-.748-1.13-.748-1.91h-.3c0 .852.277 1.563.836 2.122l.212-.212zm-.748-1.91c0-.78.251-1.413.748-1.91l-.212-.212c-.559.559-.836 1.27-.836 2.122h.3zm.748-1.91c.497-.496 1.137-.748 1.934-.748v-.3c-.867 0-1.587.276-2.146.836l.212.212zm1.934-.748c.797 0 1.437.252 1.934.748l.212-.212c-.559-.56-1.279-.836-2.146-.836v.3zm1.934.748c.497.497.748 1.13.748 1.91h.3c0-.852-.277-1.563-.836-2.122l-.212.212zm.748 1.91c0 .78-.251 1.413-.748 1.91l.212.212c.559-.559.836-1.27.836-2.122h-.3zm-.748 1.91c-.497.497-1.137.748-1.934.748v.3c.867 0 1.587-.276 2.146-.836l-.212-.212zm-1.934.46c.682 0 1.244-.216 1.668-.658l-.216-.208c-.36.374-.838.566-1.452.566v.3zm1.667-.657c.439-.448.655-1.023.655-1.713h-.3c0 .622-.192 1.119-.569 1.503l.214.21zm.655-1.713c0-.682-.216-1.254-.655-1.701l-.214.21c.377.385.569.878.569 1.491h.3zm-.655-1.701c-.439-.447-.998-.669-1.667-.669v.3c.596 0 1.076.194 1.453.579l.214-.21zm-1.667-.669c-.661 0-1.22.222-1.666.668l.212.212c.386-.386.867-.58 1.454-.58v-.3zm-1.667.669c-.439.447-.655 1.019-.655 1.701h.3c0-.613.192-1.106.569-1.491l-.214-.21zm-.655 1.701c0 .683.216 1.254.655 1.701l.214-.21c-.377-.385-.569-.877-.569-1.491h-.3zm.655 1.701c.439.447.999.669 1.667.669v-.3c-.595 0-1.076-.194-1.453-.579l-.214.21zm10.132-3.501h.15v-.428l-.268.334.118.094zm-3.6 4.5v.15h.072l.045-.056-.117-.094zm-.624 0h-.15v.15h.15V66zm0-5.4v-.15h-.15v.15h.15zm.624 0h.15v-.15h-.15v.15zm0 4.5h-.15v.428l.267-.334-.117-.094zm3.6-4.5v-.15h-.072l-.046.056.118.094zm.624 0h.15v-.15h-.15v.15zm0 5.4v.15h.15V66h-.15zm-.624 0h-.15v.15h.15V66zm-.118-4.594l-3.6 4.5.235.188 3.6-4.5-.235-.188zm-3.482 4.444h-.624v.3h.624v-.3zm-.474.15v-5.4h-.3V66h.3zm-.15-5.25h.624v-.3h-.624v.3zm.474-.15v4.5h.3v-4.5h-.3zm.267 4.594l3.6-4.5-.235-.188-3.6 4.5.235.188zm3.483-4.444h.624v-.3h-.624v.3zm.474-.15V66h.3v-5.4h-.3zm.15 5.25h-.624v.3h.624v-.3zm-.474.15v-4.5h-.3V66h.3zm2.688-.096l.043-.144-.043.144zm-.9-.516l-.124-.084-.063.092.071.087.116-.095zm.324-.48l.102-.11-.129-.119-.097.145.124.084zm.78.456l-.051.141.005.002.046-.143zm2.136-.144l.082.125-.082-.125zm.12-1.464l-.087.122.087-.122zm-1.824-.24h-.15v.15h.15v-.15zm0-.516v-.15h-.15V63h.15zm1.632-.288l-.1-.112.1.112zm-2.736-1.032l-.133.07.085.161.142-.114-.094-.117zm-.252-.48l-.108-.104-.075.078.05.096.133-.07zm3.456-.324l-.091.12.003.002.088-.122zm-.456 2.328l-.051-.141-.099.035v.106h.15zm0 .024h-.15v.137l.137.012.013-.149zm.864.408l-.113.098.001.002.112-.1zm-.3 2.04l-.087-.123.087.123zm-1.62.282c-.35 0-.743-.065-1.181-.198l-.087.287c.459.14.882.211 1.268.211v-.3zm-1.181-.198c-.411-.124-.678-.284-.827-.467l-.232.19c.203.249.535.433.973.565l.086-.288zm-.819-.288l.324-.48-.248-.168-.324.48.248.168zm.098-.454c.225.208.503.37.831.487l.102-.282a2.102 2.102 0 01-.729-.425l-.204.22zm.836.489c.333.108.656.163.97.163v-.3c-.278 0-.571-.049-.878-.149l-.092.286zm.97.163c.522 0 .958-.103 1.294-.325l-.165-.25c-.271.178-.644.275-1.129.275v.3zm1.294-.325c.342-.225.524-.538.524-.929h-.3c0 .28-.123.504-.389.679l.165.25zm.524-.929a.918.918 0 00-.399-.782l-.174.244a.617.617 0 01.273.538h.3zm-.399-.782c-.258-.184-.596-.268-.999-.268v.3c.365 0 .634.076.825.212l.174-.244zm-.999-.268h-.912v.3h.912v-.3zm-.762.15V63h-.3v.516h.3zm-.15-.366h.852v-.3h-.852v.3zm.852 0c.339 0 .635-.108.88-.326l-.2-.224a.984.984 0 01-.68.25v.3zm.88-.326a1.05 1.05 0 00.374-.808h-.3a.75.75 0 01-.274.584l.2.224zm.374-.808a.935.935 0 00-.427-.82l-.166.249c.195.13.293.314.293.571h.3zm-.427-.82c-.274-.183-.643-.266-1.091-.266v.3c.416 0 .719.078.925.215l.166-.25zm-1.091-.266a2.77 2.77 0 00-1.786.633l.188.234c.47-.379 1-.567 1.598-.567v-.3zm-1.559.68l-.252-.48-.266.14.252.48.266-.14zm-.277-.306c.418-.433 1.049-.662 1.92-.662v-.3c-.921 0-1.643.243-2.136.754l.216.208zm1.92-.662c.598 0 1.037.124 1.337.353l.182-.238c-.372-.283-.885-.415-1.519-.415v.3zm1.34.356c.303.218.454.516.454.91h.3c0-.486-.194-.876-.578-1.154l-.176.244zm.454.91c0 .29-.074.522-.213.708-.14.187-.356.338-.66.447l.101.282c.345-.123.615-.304.799-.549.185-.246.273-.545.273-.888h-.3zm-.972 1.296v.024h.3v-.024h-.3zm.137.173c.336.03.585.151.764.357l.226-.196c-.237-.274-.564-.425-.964-.46l-.026.3zm.765.36c.181.2.274.452.274.763h.3c0-.377-.115-.702-.35-.964l-.224.2zm.274.763c0 .447-.18.793-.549 1.053l.173.246c.448-.316.676-.754.676-1.299h-.3zm-.549 1.053c-.375.265-.882.405-1.533.405v.3c.692 0 1.266-.148 1.706-.46l-.173-.245zm2.175.447h-.15v.15h.15V66zm0-5.4v-.15h-.15v.15h.15zm.768-.012l-.005-.15.005.15zm2.904 2.184l-.114-.098.114.098zm-.792.42l-.025-.148-.125.02v.128h.15zm0 .024h-.15v.13l.128.018.022-.148zm-2.064 2.796l-.005.15.005-.15zm-.192-2.496v-.15h-.15v.15h.15zm0 1.908h-.15v.146l.146.004.004-.15zm0-4.248l-.005-.15-.145.005v.145h.15zm0 1.824h-.15v.15h.15V63zm2.352-.252l.09.12.003-.002-.093-.118zM130.373 66v-5.4h-.3V66h.3zm-.15-5.25c.266 0 .523-.004.773-.012l-.01-.3c-.246.008-.501.012-.763.012v.3zm.773-.012c.512-.016.834-.024.967-.024v-.3c-.139 0-.465.008-.977.024l.01.3zm.967-.024c.733 0 1.258.115 1.595.325.325.203.487.501.487.917h.3c0-.512-.21-.91-.629-1.171-.407-.254-.998-.371-1.753-.371v.3zm2.082 1.242c0 .277-.088.514-.264.718l.228.196a1.36 1.36 0 00.336-.914h-.3zm-.264.718c-.165.194-.396.319-.703.37l.05.296c.365-.06.662-.216.881-.47l-.228-.196zm-.828.518v.024h.3v-.024h-.3zm.128.172c.413.062.703.193.888.378.182.182.28.433.28.77h.3c0-.4-.118-.732-.368-.982-.247-.247-.605-.396-1.056-.462l-.044.296zm1.168 1.148c0 .46-.178.792-.533 1.016-.367.232-.936.358-1.729.358v.3c.815 0 1.452-.128 1.889-.404.449-.284.673-.715.673-1.27h-.3zm-2.262 1.374c-.101 0-.414-.008-.943-.024l-.01.3c.527.016.846.024.953.024v-.3zm-.943-.024c-.266-.008-.54-.012-.821-.012v.3c.279 0 .549.004.811.012l.01-.3zm1.099-2.496h-1.296v.3h1.296v-.3zm-1.446.15v1.908h.3v-1.908h-.3zm.146 2.058c.624.016 1.03.024 1.216.024v-.3c-.182 0-.584-.008-1.208-.024l-.008.3zm1.216.024c.57 0 1.022-.084 1.336-.27a.962.962 0 00.494-.876h-.3c0 .28-.113.48-.346.618-.246.146-.634.228-1.184.228v.3zm1.83-1.146a.913.913 0 00-.473-.831c-.3-.176-.731-.255-1.273-.255v.3c.522 0 .889.077 1.121.213.22.13.325.313.325.573h.3zm-1.854-3.45c-.266 0-.664.008-1.193.024l.01.3c.527-.016.921-.024 1.183-.024v-.3zm-1.338.174V63h.3v-1.824h-.3zm.15 1.974h1.428v-.3h-1.428v.3zm1.428 0c.412 0 .755-.088 1.014-.282l-.18-.24c-.189.142-.462.222-.834.222v.3zm1.017-.284a.993.993 0 00.393-.814h-.3c0 .243-.091.43-.279.578l.186.236zm.393-.814a.886.886 0 00-.448-.804c-.284-.17-.692-.246-1.202-.246v.3c.49 0 .832.074 1.048.204a.588.588 0 01.302.546h.3zm2.603 3.264l.106-.106-.106.106zm0-4.032l.106.106-.106-.106zm4.08 0l-.106.106.106-.106zm0 4.032l-.106-.106.106.106zm-.48-.408l-.107-.105-.001.001.108.104zm0-3.204l-.107.105.107-.105zm-3.12 0l-.106-.106-.001.001.107.105zm0 3.192l.107-.105-.107.105zm1.56 1.062c-.797 0-1.437-.251-1.934-.748l-.212.212c.56.56 1.28.836 2.146.836v-.3zm-1.934-.748c-.497-.497-.748-1.13-.748-1.91h-.3c0 .852.277 1.563.836 2.122l.212-.212zm-.748-1.91c0-.78.251-1.413.748-1.91l-.212-.212c-.559.559-.836 1.27-.836 2.122h.3zm.748-1.91c.497-.496 1.137-.748 1.934-.748v-.3c-.866 0-1.586.276-2.146.836l.212.212zm1.934-.748c.798 0 1.438.252 1.934.748l.212-.212c-.559-.56-1.279-.836-2.146-.836v.3zm1.934.748c.497.497.748 1.13.748 1.91h.3c0-.852-.277-1.563-.836-2.122l-.212.212zm.748 1.91c0 .78-.251 1.413-.748 1.91l.212.212c.559-.559.836-1.27.836-2.122h-.3zm-.748 1.91c-.496.497-1.136.748-1.934.748v.3c.867 0 1.587-.276 2.146-.836l-.212-.212zm-1.934.46c.683 0 1.244-.216 1.669-.658l-.217-.208c-.359.374-.838.566-1.452.566v.3zm1.667-.657c.439-.448.655-1.023.655-1.713h-.3c0 .622-.192 1.119-.569 1.503l.214.21zm.655-1.713c0-.682-.216-1.254-.655-1.701l-.214.21c.378.385.569.878.569 1.491h.3zm-.655-1.701c-.438-.447-.998-.669-1.667-.669v.3c.596 0 1.076.194 1.453.579l.214-.21zm-1.667-.669c-.661 0-1.22.222-1.666.668l.212.212c.386-.386.867-.58 1.454-.58v-.3zm-1.667.669c-.438.447-.655 1.019-.655 1.701h.3c0-.613.192-1.106.569-1.491l-.214-.21zm-.655 1.701c0 .683.217 1.254.655 1.701l.214-.21c-.377-.385-.569-.877-.569-1.491h-.3zm.655 1.701c.439.447.999.669 1.667.669v-.3c-.595 0-1.075-.194-1.453-.579l-.214.21zm5.434 2.367v.15h.15v-.15h-.15zm-.588 0h-.15v.15h.15v-.15zm0-1.956v-.15h-.15v.15h.15zm.672 0v.15h.072l.045-.057-.117-.093zm.552-1.284l-.145-.041v.002l.145.039zm.324-2.004l.149.01v-.002l-.149-.008zm.084-1.524v-.15h-.142l-.008.142.15.008zm3.444 0h.15v-.15h-.15v.15zm0 4.812h-.15v.15h.15v-.15zm.9 0h.15v-.15h-.15v.15zm0 1.956v.15h.15v-.15h-.15zm-.588 0h-.15v.15h.15v-.15zm0-1.368h.15v-.15h-.15V66zm-4.8 0v-.15h-.15V66h.15zm1.632-4.812v-.15h-.142l-.008.14.15.01zm-.072 1.176l.149.013v-.004l-.149-.009zm-.336 1.92l-.144-.042h-.001l.145.042zm-.48 1.128l-.12-.09-.18.24h.3v-.15zm3.12 0v.15h.15v-.15h-.15zm0-4.224h.15v-.15h-.15v.15zm-3.864 6.03h-.588v.3h.588v-.3zm-.438.15v-1.956h-.3v1.956h.3zm-.15-1.806h.672v-.3h-.672v.3zm.789-.057c.227-.288.418-.74.579-1.338l-.289-.078c-.159.586-.336.99-.525 1.23l.235.186zm.579-1.336a9.772 9.772 0 00.329-2.035l-.299-.02a9.486 9.486 0 01-.319 1.973l.289.082zm.329-2.037l.084-1.524-.299-.016-.084 1.524.299.016zm-.065-1.382h3.444v-.3h-3.444v.3zm3.294-.15v4.812h.3V60.6h-.3zm.15 4.962h.9v-.3h-.9v.3zm.75-.15v1.956h.3v-1.956h-.3zm.15 1.806h-.588v.3h.588v-.3zm-.438.15V66h-.3v1.368h.3zm-.15-1.518h-4.8v.3h4.8v-.3zm-4.95.15v1.368h.3V66h-.3zm1.632-4.821l-.072 1.176.299.018.072-1.176-.299-.018zm-.072 1.172a9.764 9.764 0 01-.33 1.89l.287.085c.164-.556.277-1.206.342-1.949l-.299-.026zm-.331 1.892c-.15.523-.304.878-.455 1.079l.24.18c.185-.247.351-.644.504-1.176l-.289-.083zm-.335 1.319h3.12v-.3h-3.12v.3zm3.27-.15v-4.224h-.3v4.224h.3zm-.15-4.374h-2.232v.3h2.232v-.3zm6.76 3.738l.124-.085-.111-.161-.127.148.114.098zm.312.456l.119.092.067-.087-.062-.09-.124.085zm-.876.648l-.057-.139h-.001l.058.139zm-3.228-.54l-.104.108h.001l.103-.108zm-.024-4.032l-.108-.104.108.104zm4.02-.144l.129.077.061-.103-.086-.083-.104.109zm-.3.504l-.102.11.136.126.095-.16-.129-.076zm-3.204.048l-.106-.106.106.106zm.012 3.204l-.104.108.001.001.103-.109zm3.164-.06l.312.457.248-.17-.312-.456-.248.17zm.317.28a1.93 1.93 0 01-.814.601l.115.278a2.23 2.23 0 00.937-.695l-.238-.184zm-.815.602a2.81 2.81 0 01-1.106.216v.3c.435 0 .843-.08 1.223-.24l-.117-.276zm-1.106.216c-.807 0-1.456-.245-1.96-.727l-.207.218c.567.542 1.294.809 2.167.809v-.3zm-1.959-.726c-.495-.48-.747-1.118-.747-1.932h-.3c0 .882.276 1.603.838 2.148l.209-.216zm-.747-1.932c0-.756.243-1.382.727-1.888l-.217-.208c-.541.566-.81 1.268-.81 2.096h.3zm.727-1.888a2.401 2.401 0 011.811-.77v-.3a2.7 2.7 0 00-2.028.862l.217.208zm1.811-.77c.906 0 1.563.219 1.997.63l.207-.217c-.51-.484-1.254-.713-2.204-.713v.3zm1.971.445l-.3.504.258.154.3-.504-.258-.154zm-.069.47c-.458-.422-1.065-.627-1.806-.627v.3c.684 0 1.212.187 1.602.548l.204-.22zm-1.806-.627c-.617 0-1.155.23-1.606.68l.212.212c.397-.397.86-.592 1.394-.592v-.3zm-1.606.68c-.447.447-.668 1.014-.668 1.69h.3c0-.604.195-1.093.58-1.478l-.212-.212zm-.668 1.69c0 .706.225 1.288.682 1.728l.208-.216c-.39-.376-.59-.874-.59-1.512h-.3zm.683 1.73c.455.428 1.03.64 1.711.64v-.3c-.614 0-1.112-.188-1.505-.56l-.206.22zm1.711.64c.737 0 1.34-.265 1.794-.796l-.228-.195c-.393.46-.91.691-1.566.691v.3zm4.552-4.446h.15v-.15h-.15v.15zm-2.148 0h-.15v.15h.15v-.15zm0-.624v-.15h-.15v.15h.15zm4.92 0h.15v-.15h-.15v.15zm0 .624v.15h.15v-.15h-.15zm-2.148 0v-.15h-.15v.15h.15zm0 4.776v.15h.15V66h-.15zm-.624 0h-.15v.15h.15V66zm0-4.926h-2.148v.3h2.148v-.3zm-1.998.15V60.6h-.3v.624h.3zm-.15-.474h4.92v-.3h-4.92v.3zm4.77-.15v.624h.3V60.6h-.3zm.15.474h-2.148v.3h2.148v-.3zm-2.298.15V66h.3v-4.776h-.3zm.15 4.626h-.624v.3h.624v-.3zm-.474.15v-4.776h-.3V66h.3zm3.601 0h-.15v.15h.15V66zm0-5.4v-.15h-.15v.15h.15zm.768-.012l-.005-.15.005.15zm2.904 2.184l-.114-.098.114.098zm-.792.42l-.025-.148-.125.02v.128h.15zm0 .024h-.15v.13l.128.018.022-.148zm-2.064 2.796l-.005.15.005-.15zm-.192-2.496v-.15h-.15v.15h.15zm0 1.908h-.15v.146l.146.004.004-.15zm0-4.248l-.005-.15-.145.005v.145h.15zm0 1.824h-.15v.15h.15V63zm2.352-.252l.09.12.002-.002-.092-.118zM159.492 66v-5.4h-.3V66h.3zm-.15-5.25c.265 0 .523-.004.773-.012l-.01-.3c-.246.008-.501.012-.763.012v.3zm.772-.012c.513-.016.835-.024.968-.024v-.3c-.139 0-.466.008-.977.024l.009.3zm.968-.024c.733 0 1.258.115 1.594.325.325.203.488.501.488.917h.3c0-.512-.21-.91-.629-1.171-.407-.254-.999-.371-1.753-.371v.3zm2.082 1.242c0 .277-.088.514-.264.718l.227.196a1.36 1.36 0 00.337-.914h-.3zm-.264.718c-.166.194-.396.319-.703.37l.049.296c.365-.06.663-.216.882-.47l-.228-.196zm-.828.518v.024h.3v-.024h-.3zm.128.172c.413.062.702.193.888.378.182.182.28.433.28.77h.3c0-.4-.118-.732-.368-.982-.247-.247-.606-.396-1.056-.462l-.044.296zm1.168 1.148c0 .46-.178.792-.533 1.016-.367.232-.936.358-1.729.358v.3c.815 0 1.452-.128 1.889-.404.449-.284.673-.715.673-1.27h-.3zm-2.262 1.374c-.101 0-.415-.008-.944-.024l-.009.3c.527.016.846.024.953.024v-.3zm-.944-.024a26.892 26.892 0 00-.82-.012v.3c.278 0 .549.004.811.012l.009-.3zm1.1-2.496h-1.296v.3h1.296v-.3zm-1.446.15v1.908h.3v-1.908h-.3zm.146 2.058c.623.016 1.029.024 1.216.024v-.3c-.182 0-.584-.008-1.208-.024l-.008.3zm1.216.024c.57 0 1.022-.084 1.336-.27a.962.962 0 00.494-.876h-.3c0 .28-.113.48-.347.618-.245.146-.633.228-1.183.228v.3zm1.83-1.146a.913.913 0 00-.473-.831c-.301-.176-.731-.255-1.273-.255v.3c.522 0 .889.077 1.121.213a.614.614 0 01.325.573h.3zm-1.854-3.45c-.267 0-.664.008-1.193.024l.009.3c.528-.016.922-.024 1.184-.024v-.3zm-1.338.174V63h.3v-1.824h-.3zm.15 1.974h1.428v-.3h-1.428v.3zm1.428 0c.412 0 .755-.088 1.014-.282l-.18-.24c-.19.142-.462.222-.834.222v.3zm1.016-.284a.991.991 0 00.394-.814h-.3c0 .243-.092.43-.279.578l.185.236zm.394-.814a.886.886 0 00-.448-.804c-.285-.17-.692-.246-1.202-.246v.3c.49 0 .832.074 1.048.204a.588.588 0 01.302.546h.3zm2.603 3.264l.106-.106-.106.106zm0-4.032l.106.106-.106-.106zm4.08 0l-.106.106.106-.106zm0 4.032l-.106-.106.106.106zm-.48-.408l-.107-.105-.001.001.108.104zm0-3.204l-.107.105.107-.105zm-3.12 0l-.106-.106-.001.001.107.105zm0 3.192l.107-.105-.107.105zm1.56 1.062c-.797 0-1.437-.251-1.934-.748l-.212.212c.559.56 1.279.836 2.146.836v-.3zm-1.934-.748c-.497-.497-.748-1.13-.748-1.91h-.3c0 .852.277 1.563.836 2.122l.212-.212zm-.748-1.91c0-.78.251-1.413.748-1.91l-.212-.212c-.559.559-.836 1.27-.836 2.122h.3zm.748-1.91c.497-.496 1.137-.748 1.934-.748v-.3c-.867 0-1.587.276-2.146.836l.212.212zm1.934-.748c.797 0 1.437.252 1.934.748l.212-.212c-.559-.56-1.279-.836-2.146-.836v.3zm1.934.748c.497.497.748 1.13.748 1.91h.3c0-.852-.277-1.563-.836-2.122l-.212.212zm.748 1.91c0 .78-.251 1.413-.748 1.91l.212.212c.559-.559.836-1.27.836-2.122h-.3zm-.748 1.91c-.497.497-1.137.748-1.934.748v.3c.867 0 1.587-.276 2.146-.836l-.212-.212zm-1.934.46c.682 0 1.244-.216 1.668-.658l-.216-.208c-.36.374-.838.566-1.452.566v.3zm1.667-.657c.439-.448.655-1.023.655-1.713h-.3c0 .622-.192 1.119-.569 1.503l.214.21zm.655-1.713c0-.682-.216-1.254-.655-1.701l-.214.21c.377.385.569.878.569 1.491h.3zm-.655-1.701c-.439-.447-.998-.669-1.667-.669v.3c.596 0 1.076.194 1.453.579l.214-.21zm-1.667-.669c-.661 0-1.22.222-1.666.668l.212.212c.386-.386.867-.58 1.454-.58v-.3zm-1.667.669c-.439.447-.655 1.019-.655 1.701h.3c0-.613.192-1.106.569-1.491l-.214-.21zm-.655 1.701c0 .683.216 1.254.655 1.701l.214-.21c-.377-.385-.569-.877-.569-1.491h-.3zm.655 1.701c.439.447.999.669 1.667.669v-.3c-.595 0-1.076-.194-1.453-.579l-.214.21zm9.236.999v.15h.15V66h-.15zm-.624 0h-.15v.15h.15V66zm0-5.4v-.15h-.15v.15h.15zm.588 0l.12-.09-.045-.06h-.075v.15zm2.244 3.012l-.12.09.122.164.12-.167-.122-.087zm2.16-3.012v-.15h-.077l-.045.063.122.087zm.564 0h.15v-.15h-.15v.15zm0 5.4v.15h.15V66h-.15zm-.624 0h-.15v.15h.15V66zm0-4.452h.15v-.465l-.272.377.122.088zm-2.1 2.916v.15h.077l.045-.062-.122-.088zm-.036 0l-.12.09.045.06h.075v-.15zm-2.172-2.916l.12-.09-.27-.362v.452h.15zm0 4.302h-.624v.3h.624v-.3zm-.474.15v-5.4h-.3V66h.3zm-.15-5.25h.588v-.3h-.588v.3zm.468-.06l2.244 3.012.24-.18-2.244-3.012-.24.18zm2.486 3.01l2.16-3.013-.244-.174-2.16 3.012.244.174zm2.038-2.95h.564v-.3h-.564v.3zm.414-.15V66h.3v-5.4h-.3zm.15 5.25h-.624v.3h.624v-.3zm-.474.15v-4.452h-.3V66h.3zm-.272-4.54l-2.1 2.916.244.176 2.1-2.916-.244-.176zm-1.978 2.854h-.036v.3h.036v-.3zm.084.06l-2.172-2.916-.24.18 2.172 2.916.24-.18zm-2.442-2.826V66h.3v-4.452h-.3zm7.039-.048l-.143.046.056.171.158-.085-.071-.132zm-.168-.516l-.079-.128-.101.062.037.112.143-.046zm3.24.036l-.113.1h.002l.111-.1zm.48 4.98v.15h.15V66h-.15zm-.624 0h-.15v.15h.15V66zm0-.828h.15v-.458l-.271.37.121.088zm-3.06.468l-.105.108h.002l.103-.108zm.12-2.412l.091.119.002-.001-.093-.118zm2.94-.036l-.089.12.239.177v-.297h-.15zm-.12-1.284l-.147.033.002.006.145-.039zm-.396-.612l-.08.127.003.002.077-.129zm-.9-.216l.009-.15h-.009v.15zm1.416 3.552l.119.09.031-.04v-.05h-.15zm0-.9h.15v-.076l-.061-.045-.089.121zm-2.436-.132l.087.122-.087-.122zm-.084 1.596l-.098.114.098-.114zm-.266-3.742l-.168-.516-.285.092.168.516.285-.092zm-.232-.342a3.082 3.082 0 011.638-.47v-.3c-.637 0-1.236.172-1.795.514l.157.256zm1.638-.47c.682 0 1.14.17 1.411.477l.225-.199c-.352-.397-.911-.578-1.636-.578v.3zm1.413.479c.284.313.441.813.441 1.531h.3c0-.754-.164-1.342-.519-1.733l-.222.202zm.441 1.531V66h.3v-3.348h-.3zm.15 3.198h-.624v.3h.624v-.3zm-.474.15v-.828h-.3V66h.3zm-.271-.917c-.41.559-.979.839-1.727.839v.3c.836 0 1.498-.32 1.969-.961l-.242-.178zm-1.727.839c-.474 0-.838-.135-1.109-.39l-.206.217c.337.32.781.473 1.315.473v-.3zm-1.108-.39c-.27-.263-.41-.614-.41-1.068h-.3c0 .522.164.955.501 1.284l.209-.216zm-.41-1.068c0-.486.174-.852.517-1.117l-.183-.238c-.424.327-.634.785-.634 1.355h.3zm.519-1.118c.343-.27.799-.412 1.383-.412v-.3c-.633 0-1.16.154-1.569.476l.186.236zm1.383-.412c.586 0 1.04.131 1.375.379l.178-.242c-.401-.296-.924-.437-1.553-.437v.3zm1.614.258c0-.564-.04-1.008-.125-1.323l-.29.078c.075.277.115.69.115 1.245h.3zm-.124-1.316c-.07-.317-.221-.562-.465-.709l-.154.258c.155.093.269.256.326.516l.293-.066zm-.463-.707c-.224-.14-.555-.214-.97-.239l-.018.3c.4.023.67.093.829.193l.159-.254zm-.979-.239c-.518 0-1.046.149-1.583.438l.142.264c.503-.27.982-.402 1.441-.402v-.3zm-.24 4.704c.722 0 1.317-.309 1.775-.911l-.239-.182c-.405.534-.914.793-1.536.793v.3zm1.806-1.002v-.9h-.3v.9h.3zm-.061-1.02c-.421-.31-.921-.462-1.493-.462v.3c.516 0 .952.136 1.315.403l.178-.242zm-1.493-.462c-.434 0-.81.107-1.119.328l.174.244c.25-.179.562-.272.945-.272v-.3zm-1.119.328a1.11 1.11 0 00-.483.95h.3c0-.305.117-.535.357-.706l-.174-.244zm-.483.95c0 .36.128.659.388.882l.195-.228c-.187-.16-.283-.374-.283-.654h-.3zm.388.882c.256.22.581.324.962.324v-.3c-.324 0-.575-.088-.767-.252l-.195.228zm9.338.69v.15h.15V66h-.15zm-.624 0h-.15v.15h.15V66zm0-4.776h.15v-.15h-.15v.15zm-2.28 0v-.15h-.142l-.008.14.15.01zm-.072 1.176l.149.01-.149-.01zm-.756 3.024l-.117-.094-.002.002.119.092zm-1.188.624l-.15.012.011.138h.139v-.15zm-.048-.612v-.15h-.163l.013.162.15-.012zm.588-.288l-.103-.11-.006.006.109.104zm.804-2.868l.149.01v-.002l-.149-.008zm.084-1.68v-.15h-.143l-.007.142.15.008zm3.492 0h.15v-.15h-.15v.15zm0 5.25h-.624v.3h.624v-.3zm-.474.15v-4.776h-.3V66h.3zm-.15-4.926h-2.28v.3h2.28v-.3zm-2.43.14l-.072 1.177.299.018.072-1.176-.299-.018zm-.072 1.176c-.052.755-.14 1.377-.263 1.87-.124.494-.28.846-.46 1.07l.233.188c.22-.272.39-.672.518-1.186.129-.515.219-1.157.271-1.922l-.299-.02zm-.725 2.942c-.296.384-.65.566-1.069.566v.3c.524 0 .962-.234 1.306-.682l-.237-.184zm-.92.704l-.048-.612-.299.024.048.612.299-.024zm-.197-.45c.259 0 .492-.121.696-.334l-.217-.208c-.164.171-.323.242-.479.242v.3zm.69-.328c.249-.231.436-.603.573-1.093.138-.491.23-1.118.278-1.875l-.299-.02c-.048.747-.138 1.35-.268 1.815-.131.467-.298.776-.488.953l.204.22zm.851-2.97l.084-1.68-.299-.015-.084 1.68.299.014zm-.065-1.538h3.492v-.3h-3.492v.3zm3.342-.15V66h.3v-5.4h-.3zm1.93 5.4h-.15v.15h.15V66zm0-5.4v-.15h-.15v.15h.15zm.624 0h.15v-.15h-.15v.15zm0 1.812h-.15v.15h.15v-.15zm2.532 3.108l.099.112.002-.001-.101-.111zM193.957 63v-.15h-.15V63h.15zm0 2.412h-.15v.15h.15v-.15zm2.04-.3l.094.117-.094-.117zm2.892.888v.15h.15V66h-.15zm-.624 0h-.15v.15h.15V66zm0-5.4v-.15h-.15v.15h.15zm.624 0h.15v-.15h-.15v.15zm-4.068 5.25h-1.488v.3h1.488v-.3zm-1.338.15v-5.4h-.3V66h.3zm-.15-5.25h.624v-.3h-.624v.3zm.474-.15v1.812h.3V60.6h-.3zm.15 1.962h.936v-.3h-.936v.3zm.936 0c.695 0 1.188.145 1.506.41.312.26.48.655.48 1.216h.3c0-.623-.189-1.115-.588-1.447-.395-.328-.969-.479-1.698-.479v.3zm1.986 1.626c0 .525-.167.926-.491 1.221l.202.222c.396-.36.589-.848.589-1.443h-.3zm-.49 1.22c-.321.285-.833.442-1.568.442v.3c.769 0 1.368-.163 1.767-.518l-.199-.224zm-1.604-2.558h-.828v.3h.828v-.3zm-.978.15v2.412h.3V63h-.3zm.15 2.562h.816v-.3h-.816v.3zm.816 0c.578 0 1.029-.1 1.318-.333l-.188-.234c-.208.167-.573.267-1.13.267v.3zm1.318-.333c.293-.236.428-.59.428-1.029h-.3c0 .376-.113.631-.316.795l.188.234zm.428-1.029c0-.436-.146-.785-.456-1.02-.301-.228-.736-.33-1.278-.33v.3c.513 0 .871.098 1.097.27.219.165.337.416.337.78h.3zm2.37 1.65h-.624v.3h.624v-.3zm-.474.15v-5.4h-.3V66h.3zm-.15-5.25h.624v-.3h-.624v.3zm.474-.15V66h.3v-5.4h-.3zm5.695 0v-.15h-.073l-.045.058.118.092zm.732 0l.118.092.188-.242h-.306v.15zm-2.028 2.616l-.119-.092-.071.092.071.092.119-.092zM205.286 66v.15h.305l-.186-.242-.119.092zm-.768 0l-.119.092.045.058h.074V66zm-1.848-2.388l.118-.092-.118-.153-.119.153.119.092zM200.822 66v.15h.073l.045-.058-.118-.092zm-.732 0l-.119-.092-.188.242h.307V66zm2.148-2.76l.118.092.071-.091-.07-.092-.119.091zm-2.028-2.64v-.15h-.305l.186.241.119-.091zm.768 0l.119-.091-.045-.059h-.074v.15zm1.716 2.232l-.119.091.118.154.119-.153-.118-.092zm1.74-2.082h.732v-.3h-.732v.3zm.613-.242l-2.028 2.616.237.184 2.028-2.616-.237-.184zm-2.028 2.8l2.148 2.784.238-.184-2.148-2.784-.238.184zm2.267 2.542h-.768v.3h.768v-.3zm-.65.058l-1.848-2.388-.237.184 1.848 2.388.237-.184zm-2.085-2.388l-1.848 2.388.237.184 1.848-2.388-.237-.184zm-1.729 2.33h-.732v.3h.732v-.3zm-.614.242l2.148-2.76-.237-.184-2.148 2.76.237.184zm2.149-2.943l-2.028-2.64-.238.182 2.028 2.64.238-.182zm-2.147-2.399h.768v-.3h-.768v.3zm.649-.059l1.716 2.232.238-.182-1.716-2.232-.238.182zm1.953 2.233l1.74-2.232-.236-.184-1.74 2.232.236.184zm6.547-1.424l-.142.046.055.171.159-.085-.072-.132zm-.168-.516l-.078-.128-.101.062.037.112.142-.046zm3.24.036l-.112.1h.001l.111-.1zm.48 4.98v.15h.15V66h-.15zm-.624 0h-.15v.15h.15V66zm0-.828h.15v-.458l-.271.37.121.088zm-3.06.468l-.104.108h.001l.103-.108zm.12-2.412l.092.119.001-.001-.093-.118zm2.94-.036l-.089.12.239.177v-.297h-.15zm-.12-1.284l-.146.033.002.006.144-.039zm-.396-.612l-.079.127.002.002.077-.129zm-.9-.216l.009-.15h-.009v.15zm1.416 3.552l.12.09.03-.04v-.05h-.15zm0-.9h.15v-.076l-.061-.045-.089.121zm-2.436-.132l.088.122-.088-.122zm-.084 1.596l-.097.114.097-.114zm-.265-3.742l-.168-.516-.285.092.168.516.285-.092zm-.232-.342a3.08 3.08 0 011.637-.47v-.3c-.636 0-1.235.172-1.794.514l.157.256zm1.637-.47c.683 0 1.14.17 1.412.477l.225-.199c-.352-.397-.911-.578-1.637-.578v.3zm1.413.479c.285.313.441.813.441 1.531h.3c0-.754-.163-1.342-.519-1.733l-.222.202zm.441 1.531V66h.3v-3.348h-.3zm.15 3.198h-.624v.3h.624v-.3zm-.474.15v-.828h-.3V66h.3zm-.271-.917c-.409.559-.979.839-1.727.839v.3c.837 0 1.499-.32 1.969-.961l-.242-.178zm-1.727.839c-.473 0-.838-.135-1.108-.39l-.207.217c.338.32.781.473 1.315.473v-.3zm-1.107-.39c-.27-.263-.411-.614-.411-1.068h-.3c0 .522.164.955.502 1.284l.209-.216zm-.411-1.068c0-.486.174-.852.518-1.117l-.183-.238c-.425.327-.635.785-.635 1.355h.3zm.519-1.118c.343-.27.8-.412 1.383-.412v-.3c-.632 0-1.159.154-1.568.476l.185.236zm1.383-.412c.587 0 1.04.131 1.375.379l.179-.242c-.402-.296-.924-.437-1.554-.437v.3zm1.614.258c0-.564-.04-1.008-.125-1.323l-.289.078c.074.277.114.69.114 1.245h.3zm-.123-1.316c-.071-.317-.221-.562-.465-.709l-.155.258c.156.093.269.256.327.516l.293-.066zm-.463-.707c-.224-.14-.555-.214-.971-.239l-.017.3c.4.023.669.093.829.193l.159-.254zm-.98-.239c-.517 0-1.045.149-1.583.438l.143.264c.502-.27.982-.402 1.44-.402v-.3zm-.24 4.704c.723 0 1.318-.309 1.776-.911l-.239-.182c-.406.534-.915.793-1.537.793v.3zm1.806-1.002v-.9h-.3v.9h.3zm-.061-1.02c-.421-.31-.921-.462-1.493-.462v.3c.516 0 .952.136 1.316.403l.177-.242zm-1.493-.462c-.433 0-.809.107-1.119.328l.175.244c.25-.179.562-.272.944-.272v-.3zm-1.119.328c-.32.229-.483.55-.483.95h.3c0-.305.118-.535.358-.706l-.175-.244zm-.483.95c0 .36.129.659.389.882l.195-.228c-.188-.16-.284-.374-.284-.654h-.3zm.389.882c.256.22.581.324.961.324v-.3c-.323 0-.574-.088-.766-.252l-.195.228zm5.533 3.09v.15h.15v-.15h-.15zm-.624 0h-.15v.15h.15v-.15zm0-7.8v-.15h-.15v.15h.15zm.624 0h.15v-.15h-.15v.15zm0 .72h-.15v.39l.262-.29-.112-.1zm.864-.588l.059.138h.001l-.06-.138zm2.952.516l.111-.1-.111.1zm-.084 4.044l.109.104v-.001l-.109-.103zm-3.732.36l.088-.122-.238-.17v.292h.15zm.78-4.332l-.064-.135h-.002l.066.135zm-.78.6l-.117-.094-.033.041v.053h.15zm0 3.108h-.15v.08l.068.045.082-.125zm3.24-.144l.109.103-.109-.103zm.06-3.216l-.11.102.11-.102zm-3.3 6.582h-.624v.3h.624v-.3zm-.474.15v-7.8h-.3v7.8h.3zm-.15-7.65h.624v-.3h-.624v.3zm.474-.15v.72h.3v-.72h-.3zm.262.82c.198-.22.467-.405.811-.55l-.117-.276a2.535 2.535 0 00-.917.626l.223.2zm.812-.55c.35-.153.702-.228 1.056-.228v-.3c-.398 0-.79.085-1.176.252l.12.276zm1.056-.228c.732 0 1.301.238 1.725.707l.222-.202c-.488-.54-1.142-.805-1.947-.805v.3zm1.725.707c.426.471.645 1.089.645 1.867h.3c0-.838-.237-1.532-.723-2.069l-.222.202zm.645 1.867c0 .807-.244 1.46-.727 1.973l.218.206c.542-.576.809-1.306.809-2.179h-.3zm-.726 1.972c-.489.512-1.117.77-1.896.77v.3c.853 0 1.562-.286 2.113-.862l-.217-.208zm-1.896.77c-.708 0-1.25-.148-1.64-.428l-.175.244c.458.328 1.068.484 1.815.484v-.3zm-1.878-.306V68.4h.3v-2.748h-.3zm1.962-4.722c-.375 0-.741.086-1.096.255l.129.27c.317-.15.639-.225.967-.225v-.3zm-1.098.255a2.381 2.381 0 00-.831.641l.234.188a2.09 2.09 0 01.729-.56l-.132-.269zm-.864.735v3.108h.3V61.92h-.3zm.068 3.233c.521.345 1.11.517 1.762.517v-.3a2.827 2.827 0 01-1.597-.467l-.165.25zm1.762.517c.677 0 1.238-.226 1.669-.683l-.218-.206c-.369.39-.848.589-1.451.589v.3zm1.669-.683c.43-.456.641-1.038.641-1.735h-.3c0 .631-.189 1.137-.559 1.53l.218.205zm.641-1.735c0-.692-.188-1.26-.579-1.686l-.221.203c.328.358.5.847.5 1.483h.3zm-.579-1.686c-.394-.428-.933-.636-1.599-.636v.3c.599 0 1.051.184 1.378.54l.221-.204zm5.988-.966v-.15h-.073l-.045.058.118.092zm.732 0l.119.092.187-.242h-.306v.15zm-2.028 2.616l-.118-.092-.071.092.071.092.118-.092zM225.454 66v.15h.305l-.186-.242-.119.092zm-.768 0l-.118.092.045.058h.073V66zm-1.848-2.388l.119-.092-.119-.153-.118.153.118.092zM220.99 66v.15h.074l.045-.058-.119-.092zm-.732 0l-.118-.092-.189.242h.307V66zm2.148-2.76l.119.092.071-.091-.071-.092-.119.091zm-2.028-2.64v-.15h-.304l.185.241.119-.091zm.768 0l.119-.091-.045-.059h-.074v.15zm1.716 2.232l-.119.091.118.154.12-.153-.119-.092zm1.74-2.082h.732v-.3h-.732v.3zm.614-.242l-2.028 2.616.237.184 2.028-2.616-.237-.184zm-2.028 2.8l2.147 2.784.238-.184-2.148-2.784-.237.184zm2.266 2.542h-.768v.3h.768v-.3zm-.649.058l-1.848-2.388-.237.184 1.848 2.388.237-.184zm-2.085-2.388l-1.848 2.388.237.184 1.848-2.388-.237-.184zm-1.73 2.33h-.732v.3h.732v-.3zm-.613.242l2.148-2.76-.237-.184-2.148 2.76.237.184zm2.148-2.943l-2.028-2.64-.238.182 2.028 2.64.238-.182zm-2.147-2.399h.768v-.3h-.768v.3zm.649-.059l1.716 2.232.238-.182-1.716-2.232-.238.182zm1.954 2.233l1.74-2.232-.237-.184-1.74 2.232.237.184zm7.899-1.424h.15v-.428l-.267.334.117.094zm-3.6 4.5v.15h.072l.045-.056-.117-.094zm-.624 0h-.15v.15h.15V66zm0-5.4v-.15h-.15v.15h.15zm.624 0h.15v-.15h-.15v.15zm0 4.5h-.15v.428l.267-.334-.117-.094zm3.6-4.5v-.15h-.072l-.045.056.117.094zm.624 0h.15v-.15h-.15v.15zm0 5.4v.15h.15V66h-.15zm-.624 0h-.15v.15h.15V66zm-.117-4.594l-3.6 4.5.234.188 3.6-4.5-.234-.188zm-3.483 4.444h-.624v.3h.624v-.3zm-.474.15v-5.4h-.3V66h.3zm-.15-5.25h.624v-.3h-.624v.3zm.474-.15v4.5h.3v-4.5h-.3zm.267 4.594l3.6-4.5-.234-.188-3.6 4.5.234.188zm3.483-4.444h.624v-.3h-.624v.3zm.474-.15V66h.3v-5.4h-.3zm.15 5.25h-.624v.3h.624v-.3zm-.474.15v-4.5h-.3V66h.3zm3.6-4.776h.15v-.15h-.15v.15zm-2.148 0h-.15v.15h.15v-.15zm0-.624v-.15h-.15v.15h.15zm4.92 0h.15v-.15h-.15v.15zm0 .624v.15h.15v-.15h-.15zm-2.148 0v-.15h-.15v.15h.15zm0 4.776v.15h.15V66h-.15zm-.624 0h-.15v.15h.15V66zm0-4.926h-2.148v.3h2.148v-.3zm-1.998.15V60.6h-.3v.624h.3zm-.15-.474h4.92v-.3h-4.92v.3zm4.77-.15v.624h.3V60.6h-.3zm.15.474h-2.148v.3h2.148v-.3zm-2.298.15V66h.3v-4.776h-.3zm.15 4.626h-.624v.3h.624v-.3zm-.474.15v-4.776h-.3V66h.3zm7.685-1.14l.138-.059-.09-.21-.157.166.109.103zm.204.48l.109.103.068-.07-.039-.092-.138.059zm-4.068 0l.105-.107h-.001l-.104.107zm-.072-4.056l-.11-.102-.001.001.111.101zm3.768-.12l-.103.109.103-.109zm.66 2.268v.15h.127l.021-.125-.148-.025zm-4.452 0v-.15h-.156l.006.156.15-.006zm.636 1.536l-.103.11h.001l.102-.11zm-.06-3.384l-.102-.11-.002.002.104.108zm-.612 1.332l-.149-.015-.017.165h.166v-.15zm3.888 0v.15h.152l-.002-.152-.15.002zm-.03 2.003l.204.48.276-.118-.204-.48-.276.118zm.233.318c-.454.476-1.076.721-1.883.721v.3c.873 0 1.579-.267 2.101-.814l-.218-.207zm-1.883.721c-.832 0-1.484-.245-1.971-.725l-.21.214c.553.544 1.285.811 2.181.811v-.3zm-1.972-.726c-.494-.48-.746-1.118-.746-1.932h-.3c0 .882.276 1.603.838 2.148l.208-.216zm-.746-1.932c0-.784.23-1.419.681-1.915l-.222-.202c-.509.56-.759 1.27-.759 2.117h.3zm.68-1.914c.454-.492 1.083-.744 1.906-.744v-.3c-.889 0-1.604.276-2.126.84l.22.204zm1.906-.744c.661 0 1.207.211 1.649.63l.206-.217c-.502-.476-1.124-.713-1.855-.713v.3zm1.649.63c.429.408.649.954.649 1.656h.3c0-.77-.244-1.4-.743-1.873l-.206.218zm.649 1.656a3 3 0 01-.034.48l.296.049c.026-.155.038-.331.038-.529h-.3zm.114.354h-4.452v.3h4.452v-.3zm-4.602.156c.025.68.249 1.231.683 1.64l.206-.22c-.366-.343-.566-.815-.589-1.432l-.3.012zm.684 1.64c.433.399.996.592 1.674.592v-.3c-.618 0-1.103-.175-1.47-.512l-.204.22zm1.674.592c.783 0 1.41-.23 1.861-.707l-.218-.206c-.381.403-.922.613-1.643.613v.3zm-.228-4.74c-.607 0-1.114.178-1.506.544l.204.22c.328-.306.757-.464 1.302-.464v-.3zm-1.508.545c-.381.365-.598.844-.657 1.426l.298.03c.053-.522.244-.93.567-1.238l-.208-.218zm-.508 1.591h3.888v-.3h-3.888v.3zm4.038-.152c-.008-.599-.191-1.088-.561-1.45l-.21.215c.302.295.463.702.471 1.24l.3-.005zm-.561-1.45c-.37-.36-.863-.534-1.461-.534v.3c.538 0 .949.154 1.251.45l.21-.215zm6.02-.864v-.15h-.062l-.044.044.106.106zm.804 0l.104.108.266-.258h-.37v.15zm-2.664 2.58l-.104-.108-.111.107.11.108.105-.107zm2.88 2.82v.15h.368l-.263-.257-.105.107zm-.84 0l-.106.106.044.044h.062V66zm-2.796-2.784l-.106-.106-.106.106.106.106.106-.106zM244.99 66v.15h.15V66h-.15zm-.624 0h-.15v.15h.15V66zm0-5.4v-.15h-.15v.15h.15zm.624 0h.15v-.15h-.15v.15zm2.976.15h.804v-.3h-.804v.3zm.7-.258l-2.664 2.58.208.216 2.664-2.58-.208-.216zm-2.665 2.795l2.88 2.82.21-.214-2.88-2.82-.21.214zm2.985 2.563h-.84v.3h.84v-.3zm-.734.044l-2.796-2.784-.212.212 2.796 2.784.212-.212zm-2.796-2.572l2.616-2.616-.212-.212-2.616 2.616.212.212zm-.466 2.528h-.624v.3h.624v-.3zm-.474.15v-5.4h-.3V66h.3zm-.15-5.25h.624v-.3h-.624v.3zm.474-.15V66h.3v-5.4h-.3zm6.574.624h.15v-.15h-.15v.15zm-2.148 0h-.15v.15h.15v-.15zm0-.624v-.15h-.15v.15h.15zm4.92 0h.15v-.15h-.15v.15zm0 .624v.15h.15v-.15h-.15zm-2.148 0v-.15h-.15v.15h.15zm0 4.776v.15h.15V66h-.15zm-.624 0h-.15v.15h.15V66zm0-4.926h-2.148v.3h2.148v-.3zm-1.998.15V60.6h-.3v.624h.3zm-.15-.474h4.92v-.3h-4.92v.3zm4.77-.15v.624h.3V60.6h-.3zm.15.474h-2.148v.3h2.148v-.3zm-2.298.15V66h.3v-4.776h-.3zm.15 4.626h-.624v.3h.624v-.3zm-.474.15v-4.776h-.3V66h.3zm7.748-5.4v-.15h-.103l-.037.096.14.054zm.708 0l.139.056.084-.206h-.223v.15zm-2.184 5.4l.139.057-.139-.057zm-1.02 1.896l-.11-.102-.004.004.114.098zm-1.932.228l-.138-.059-.052.123.115.066.075-.13zm.204-.48l.066-.135-.142-.069-.062.145.138.059zm1.368-.18l-.11-.102-.001.002.111.1zm.672-1.176l.139.058-.139-.058zm.12-.288l.139.058.026-.063-.03-.061-.135.066zm-2.664-5.4v-.15h-.241l.107.216.134-.066zm.744 0l.135-.065-.041-.085h-.094v.15zm1.848 3.816l.137-.062-.002-.003-.135.065zm.384.84l-.136.062.178.39.104-.416-.146-.036zm.3-.864l-.14-.054-.001.004.141.05zm1.452-3.642h.708v-.3h-.708v.3zm.569-.206l-2.184 5.4.278.112 2.184-5.4-.278-.112zm-2.183 5.399c-.393.952-.724 1.561-.992 1.851l.22.204c.309-.334.657-.99 1.049-1.94l-.277-.115zm-.996 1.855c-.264.309-.56.452-.894.452v.3c.435 0 .81-.193 1.122-.556l-.228-.196zm-.894.452c-.264 0-.546-.082-.849-.256l-.15.26c.338.194.671.296.999.296v-.3zm-.786-.067l.204-.48-.276-.118-.204.48.276.118zm.001-.404c.258.125.493.195.701.195v-.3c-.144 0-.332-.05-.57-.165l-.131.27zm.701.195c.323 0 .605-.145.844-.41l-.223-.2c-.194.215-.399.31-.621.31v.3zm.842-.408c.234-.252.467-.663.701-1.22l-.277-.116c-.23.547-.446.92-.644 1.132l.22.204zm.701-1.22l.12-.288-.277-.116-.12.288.277.116zm.116-.412l-2.664-5.4-.269.132 2.664 5.4.269-.132zm-2.799-5.184h.744v-.3h-.744v.3zm.609-.085l1.848 3.816.27-.13-1.848-3.816-.27.13zm1.847 3.813l.384.84.273-.124-.384-.84-.273.124zm.666.814l.004-.014.016-.046.057-.167.219-.623-.283-.1a119.237 119.237 0 00-.304.878l.291.072zm.294-.846l1.452-3.792-.28-.108-1.452 3.792.28.108zm3.646 3.954v.15h.15v-.15h-.15zm-.624 0h-.15v.15h.15v-.15zm0-7.8v-.15h-.15v.15h.15zm.624 0h.15v-.15h-.15v.15zm0 .72h-.15v.39l.261-.29-.111-.1zm.864-.588l.058.138h.001l-.059-.138zm2.952.516l.111-.1-.111.1zm-.084 4.044l.108.104.001-.001-.109-.103zm-3.732.36l.087-.122-.237-.17v.292h.15zm.78-4.332l-.065-.135h-.001l.066.135zm-.78.6l-.118-.094-.032.041v.053h.15zm0 3.108h-.15v.08l.067.045.083-.125zm3.24-.144l.109.103-.109-.103zm.06-3.216l-.111.102.111-.102zm-3.3 6.582h-.624v.3h.624v-.3zm-.474.15v-7.8h-.3v7.8h.3zm-.15-7.65h.624v-.3h-.624v.3zm.474-.15v.72h.3v-.72h-.3zm.261.82a2.25 2.25 0 01.811-.55l-.117-.276a2.544 2.544 0 00-.917.626l.223.2zm.812-.55a2.632 2.632 0 011.057-.228v-.3c-.398 0-.791.085-1.176.252l.119.276zm1.057-.228c.731 0 1.301.238 1.724.707l.223-.202c-.488-.54-1.143-.805-1.947-.805v.3zm1.724.707c.427.471.646 1.089.646 1.867h.3c0-.838-.238-1.532-.723-2.069l-.223.202zm.646 1.867c0 .807-.245 1.46-.728 1.973l.219.206c.541-.576.809-1.306.809-2.179h-.3zm-.727 1.972c-.489.512-1.117.77-1.895.77v.3c.853 0 1.561-.286 2.112-.862l-.217-.208zm-1.895.77c-.709 0-1.251-.148-1.641-.428l-.175.244c.458.328 1.068.484 1.816.484v-.3zm-1.878-.306V68.4h.3v-2.748h-.3zm1.962-4.722c-.376 0-.742.086-1.097.255l.129.27a2.24 2.24 0 01.968-.225v-.3zm-1.098.255a2.39 2.39 0 00-.832.641l.235.188c.175-.22.417-.407.728-.56l-.131-.269zm-.864.735v3.108h.3V61.92h-.3zm.067 3.233a3.128 3.128 0 001.763.517v-.3a2.83 2.83 0 01-1.598-.467l-.165.25zm1.763.517c.676 0 1.237-.226 1.669-.683l-.219-.206c-.368.39-.847.589-1.45.589v.3zm1.669-.683c.43-.456.641-1.038.641-1.735h-.3c0 .631-.189 1.137-.56 1.53l.219.205zm.641-1.735c0-.692-.189-1.26-.58-1.686l-.221.203c.329.358.501.847.501 1.483h.3zm-.58-1.686c-.394-.428-.933-.636-1.598-.636v.3c.598 0 1.051.184 1.377.54l.221-.204zM272.298 66v.15h.15V66h-.15zm-.624 0h-.15v.15h.15V66zm0-2.448h.15v-.15h-.15v.15zm-3.504 0v-.15h-.15v.15h.15zm0 2.448v.15h.15V66h-.15zm-.624 0h-.15v.15h.15V66zm0-5.4v-.15h-.15v.15h.15zm.624 0h.15v-.15h-.15v.15zm0 2.364h-.15v.15h.15v-.15zm3.504 0v.15h.15v-.15h-.15zm0-2.364v-.15h-.15v.15h.15zm.624 0h.15v-.15h-.15v.15zm0 5.25h-.624v.3h.624v-.3zm-.474.15v-2.448h-.3V66h.3zm-.15-2.598h-3.504v.3h3.504v-.3zm-3.654.15V66h.3v-2.448h-.3zm.15 2.298h-.624v.3h.624v-.3zm-.474.15v-5.4h-.3V66h.3zm-.15-5.25h.624v-.3h-.624v.3zm.474-.15v2.364h.3V60.6h-.3zm.15 2.514h3.504v-.3h-3.504v.3zm3.654-.15V60.6h-.3v2.364h.3zm-.15-2.214h.624v-.3h-.624v.3zm.474-.15V66h.3v-5.4h-.3zm1.923 5.4h-.15v.15h.15V66zm0-5.4v-.15h-.15v.15h.15zm.624 0h.15v-.15h-.15v.15zm0 1.812h-.15v.15h.15v-.15zm2.532 3.108l.099.112.002-.001-.101-.111zM274.695 63v-.15h-.15V63h.15zm0 2.412h-.15v.15h.15v-.15zm2.04-.3l.094.117-.094-.117zm2.892.888v.15h.15V66h-.15zm-.624 0h-.15v.15h.15V66zm0-5.4v-.15h-.15v.15h.15zm.624 0h.15v-.15h-.15v.15zm-4.068 5.25h-1.488v.3h1.488v-.3zm-1.338.15v-5.4h-.3V66h.3zm-.15-5.25h.624v-.3h-.624v.3zm.474-.15v1.812h.3V60.6h-.3zm.15 1.962h.936v-.3h-.936v.3zm.936 0c.695 0 1.188.145 1.506.41.312.26.48.655.48 1.216h.3c0-.623-.189-1.115-.588-1.447-.395-.328-.969-.479-1.698-.479v.3zm1.986 1.626c0 .525-.167.926-.491 1.221l.202.222c.396-.36.589-.848.589-1.443h-.3zm-.49 1.22c-.321.285-.833.442-1.568.442v.3c.769 0 1.368-.163 1.767-.518l-.199-.224zm-1.604-2.558h-.828v.3h.828v-.3zm-.978.15v2.412h.3V63h-.3zm.15 2.562h.816v-.3h-.816v.3zm.816 0c.578 0 1.029-.1 1.318-.333l-.189-.234c-.207.167-.572.267-1.129.267v.3zm1.318-.333c.293-.236.428-.59.428-1.029h-.3c0 .376-.113.631-.317.795l.189.234zm.428-1.029c0-.436-.146-.785-.456-1.02-.301-.228-.736-.33-1.278-.33v.3c.513 0 .871.098 1.097.27.219.165.337.416.337.78h.3zm2.37 1.65h-.624v.3h.624v-.3zm-.474.15v-5.4h-.3V66h.3zm-.15-5.25h.624v-.3h-.624v.3zm.474-.15V66h.3v-5.4h-.3zm5.695 0v-.15h-.073l-.046.058.119.092zm.732 0l.118.092.188-.242h-.306v.15zm-2.028 2.616l-.119-.092-.071.092.071.092.119-.092zM286.024 66v.15h.305l-.186-.242-.119.092zm-.768 0l-.119.092.045.058h.074V66zm-1.848-2.388l.118-.092-.118-.153-.119.153.119.092zM281.56 66v.15h.073l.045-.058-.118-.092zm-.732 0l-.119-.092-.188.242h.307V66zm2.148-2.76l.118.092.071-.091-.07-.092-.119.091zm-2.028-2.64v-.15h-.305l.186.241.119-.091zm.768 0l.119-.091-.045-.059h-.074v.15zm1.716 2.232l-.119.091.118.154.119-.153-.118-.092zm1.74-2.082h.732v-.3h-.732v.3zm.613-.242l-2.028 2.616.237.184 2.028-2.616-.237-.184zm-2.028 2.8l2.148 2.784.238-.184-2.148-2.784-.238.184zm2.267 2.542h-.768v.3h.768v-.3zm-.65.058l-1.848-2.388-.237.184 1.848 2.388.237-.184zm-2.085-2.388l-1.848 2.388.237.184 1.848-2.388-.237-.184zm-1.729 2.33h-.732v.3h.732v-.3zm-.614.242l2.148-2.76-.237-.184-2.148 2.76.237.184zm2.149-2.943l-2.028-2.64-.238.182 2.028 2.64.238-.182zm-2.147-2.399h.768v-.3h-.768v.3zm.649-.059l1.716 2.232.238-.182-1.716-2.232-.238.182zm1.953 2.233l1.74-2.232-.237-.184-1.74 2.232.237.184zm9.727 5.476v.15h.15v-.15h-.15zm-.624 0h-.15v.15h.15v-.15zm0-2.292h.15v-.15h-.15v.15zm-2.316-.78l-.106.106.002.002.104-.108zm0-4.008l-.107-.105-.001.001.108.104zm2.316-.828v.15h.15v-.15h-.15zm0-2.892v-.15h-.15v.15h.15zm.624 0h.15v-.15h-.15v.15zm0 2.892h-.15v.15h.15v-.15zm2.304.804l-.106.106h.001l.105-.106zm.024 4.032l.106.106.002-.002-.108-.104zm-2.328.78v-.15h-.15v.15h.15zm-2.46-1.2l-.108.104.004.004.104-.108zm1.836.612v.15h.15v-.15h-.15zm0-4.44h.15v-.15h-.15v.15zm-1.848.636l-.108-.104-.001.001.109.103zm2.472-.636v-.15h-.15v.15h.15zm0 4.44h-.15v.15h.15v-.15zm1.836-.6l.105.107h.001l-.106-.107zm0-3.192l-.11.102.001.001.109-.103zm-1.836 6.522h-.624v.3h.624v-.3zm-.474.15v-2.292h-.3V68.4h.3zm-.15-2.442h-.18v.3h.18v-.3zm-.18 0c-.856 0-1.528-.25-2.031-.738l-.209.216c.569.552 1.321.822 2.24.822v-.3zm-2.03-.736c-.496-.497-.748-1.133-.748-1.922h-.3c0 .86.277 1.575.836 2.134l.212-.212zm-.748-1.922c0-.73.25-1.352.751-1.876l-.217-.208a2.914 2.914 0 00-.834 2.084h.3zm.75-1.875c.504-.52 1.171-.783 2.016-.783v-.3c-.914 0-1.663.288-2.231.873l.215.21zm2.016-.783h.192v-.3h-.192v.3zm.342-.15V57.6h-.3v2.892h.3zm-.15-2.742h.624v-.3h-.624v.3zm.474-.15v2.892h.3V57.6h-.3zm.15 3.042h.204v-.3h-.204v.3zm.204 0c.831 0 1.49.256 1.994.76l.212-.212c-.568-.568-1.308-.848-2.206-.848v.3zm1.995.76c.505.498.759 1.127.759 1.898h.3c0-.845-.281-1.552-.848-2.11l-.211.213zm.759 1.898c0 .781-.247 1.418-.737 1.924l.215.208c.55-.566.822-1.281.822-2.132h-.3zm-.736 1.922c-.486.486-1.152.736-2.018.736v.3c.927 0 1.676-.27 2.23-.824l-.212-.212zm-2.018.736h-.204v.3h.204v-.3zm-.354.15V68.4h.3v-2.292h-.3zm-3.072-2.808c0 .683.217 1.257.654 1.712l.216-.208c-.378-.393-.57-.89-.57-1.504h-.3zm.658 1.716c.458.44 1.062.654 1.796.654v-.3c-.673 0-1.197-.194-1.588-.57l-.208.216zm1.796.654h.144v-.3h-.144v.3zm.294-.15v-4.44h-.3v4.44h.3zm-.15-4.59h-.204v.3h.204v-.3zm-.204 0c-.721 0-1.311.224-1.752.682l.216.208c.375-.39.882-.59 1.536-.59v-.3zm-1.753.683c-.428.454-.641 1.02-.641 1.687h.3c0-.597.188-1.087.56-1.481l-.219-.206zm2.785-.683h-.204v.3h.204v-.3zm-.354.15v4.44h.3v-4.44h-.3zm.15 4.59h.156v-.3h-.156v.3zm.156 0c.741 0 1.343-.209 1.785-.643l-.21-.214c-.373.366-.892.557-1.575.557v.3zm1.786-.644c.441-.44.656-1.021.656-1.726h-.3c0 .64-.192 1.139-.568 1.514l.212.212zm.656-1.726c0-.653-.217-1.214-.653-1.675l-.218.206c.381.403.571.89.571 1.469h.3zm-.652-1.674c-.433-.468-1.02-.696-1.742-.696v.3c.654 0 1.156.204 1.522.6l.22-.204zm2.975 3.69l.106-.106-.106.106zm0-4.032l.106.106-.106-.106zm4.08 0l-.106.106.106-.106zm0 4.032l-.106-.106.106.106zm-.48-.408l-.107-.105-.001.001.108.104zm0-3.204l-.107.105.107-.105zm-3.12 0l-.106-.106-.001.001.107.105zm0 3.192l.107-.105-.107.105zm1.56 1.062c-.797 0-1.438-.251-1.934-.748l-.212.212c.559.56 1.279.836 2.146.836v-.3zm-1.934-.748c-.497-.497-.748-1.13-.748-1.91h-.3c0 .852.277 1.563.836 2.122l.212-.212zm-.748-1.91c0-.78.251-1.413.748-1.91l-.212-.212c-.559.559-.836 1.27-.836 2.122h.3zm.748-1.91c.496-.496 1.137-.748 1.934-.748v-.3c-.867 0-1.587.276-2.146.836l.212.212zm1.934-.748c.797 0 1.437.252 1.934.748l.212-.212c-.56-.56-1.279-.836-2.146-.836v.3zm1.934.748c.497.497.748 1.13.748 1.91h.3c0-.852-.277-1.563-.836-2.122l-.212.212zm.748 1.91c0 .78-.251 1.413-.748 1.91l.212.212c.559-.559.836-1.27.836-2.122h-.3zm-.748 1.91c-.497.497-1.137.748-1.934.748v.3c.867 0 1.586-.276 2.146-.836l-.212-.212zm-1.934.46c.682 0 1.244-.216 1.668-.658l-.216-.208c-.36.374-.838.566-1.452.566v.3zm1.667-.657c.439-.448.655-1.023.655-1.713h-.3c0 .622-.192 1.119-.569 1.503l.214.21zm.655-1.713c0-.682-.216-1.254-.655-1.701l-.214.21c.377.385.569.878.569 1.491h.3zm-.655-1.701c-.439-.447-.999-.669-1.667-.669v.3c.595 0 1.076.194 1.453.579l.214-.21zm-1.667-.669c-.661 0-1.22.222-1.666.668l.212.212c.386-.386.867-.58 1.454-.58v-.3zm-1.667.669c-.439.447-.655 1.019-.655 1.701h.3c0-.613.192-1.106.569-1.491l-.214-.21zm-.655 1.701c0 .683.216 1.254.655 1.701l.214-.21c-.377-.385-.569-.877-.569-1.491h-.3zm.655 1.701c.439.447.998.669 1.667.669v-.3c-.596 0-1.076-.194-1.453-.579l-.214.21zm6.531 3.399v.15h.15v-.15h-.15zm-.624 0h-.15v.15h.15v-.15zm0-7.8v-.15h-.15v.15h.15zm.624 0h.15v-.15h-.15v.15zm0 .72h-.15v.39l.262-.29-.112-.1zm.864-.588l.059.138h.001l-.06-.138zm2.952.516l.112-.1-.112.1zm-.084 4.044l.109.104.001-.001-.11-.103zm-3.732.36l.088-.122-.238-.17v.292h.15zm.78-4.332l-.064-.135h-.001l.065.135zm-.78.6l-.117-.094-.033.041v.053h.15zm0 3.108h-.15v.08l.068.045.082-.125zm3.24-.144l.11.103-.11-.103zm.06-3.216l-.11.102.11-.102zm-3.3 6.582h-.624v.3h.624v-.3zm-.474.15v-7.8h-.3v7.8h.3zm-.15-7.65h.624v-.3h-.624v.3zm.474-.15v.72h.3v-.72h-.3zm.262.82c.198-.22.467-.405.811-.55l-.117-.276a2.535 2.535 0 00-.917.626l.223.2zm.812-.55a2.627 2.627 0 011.056-.228v-.3c-.397 0-.79.085-1.175.252l.119.276zm1.056-.228c.732 0 1.302.238 1.725.707l.223-.202c-.489-.54-1.143-.805-1.948-.805v.3zm1.725.707c.427.471.645 1.089.645 1.867h.3c0-.838-.237-1.532-.722-2.069l-.223.202zm.645 1.867c0 .807-.244 1.46-.727 1.973l.219.206c.541-.576.808-1.306.808-2.179h-.3zm-.726 1.972c-.489.512-1.117.77-1.896.77v.3c.854 0 1.562-.286 2.113-.862l-.217-.208zm-1.896.77c-.708 0-1.25-.148-1.64-.428l-.175.244c.458.328 1.068.484 1.815.484v-.3zm-1.878-.306V68.4h.3v-2.748h-.3zm1.962-4.722c-.375 0-.741.086-1.096.255l.129.27c.317-.15.639-.225.967-.225v-.3zm-1.097.255a2.38 2.38 0 00-.832.641l.235.188c.175-.22.416-.407.728-.56l-.131-.269zm-.865.735v3.108h.3V61.92h-.3zm.068 3.233a3.127 3.127 0 001.762.517v-.3a2.827 2.827 0 01-1.597-.467l-.165.25zm1.762.517c.677 0 1.238-.226 1.67-.683l-.219-.206c-.368.39-.847.589-1.451.589v.3zm1.67-.683c.43-.456.64-1.038.64-1.735h-.3c0 .631-.189 1.137-.559 1.53l.219.205zm.64-1.735c0-.692-.188-1.26-.579-1.686l-.221.203c.329.358.5.847.5 1.483h.3zm-.579-1.686c-.394-.428-.933-.636-1.599-.636v.3c.599 0 1.052.184 1.378.54l.221-.204zM311.627 66v.15h.15V66h-.15zm-.624 0h-.15v.15h.15V66zm0-5.4v-.15h-.15v.15h.15zm.588 0l.12-.09-.045-.06h-.075v.15zm2.244 3.012l-.12.09.122.164.12-.167-.122-.087zm2.16-3.012v-.15h-.077l-.045.063.122.087zm.564 0h.15v-.15h-.15v.15zm0 5.4v.15h.15V66h-.15zm-.624 0h-.15v.15h.15V66zm0-4.452h.15v-.465l-.272.377.122.088zm-2.1 2.916v.15h.077l.045-.062-.122-.088zm-.036 0l-.12.09.045.06h.075v-.15zm-2.172-2.916l.12-.09-.27-.362v.452h.15zm0 4.302h-.624v.3h.624v-.3zm-.474.15v-5.4h-.3V66h.3zm-.15-5.25h.588v-.3h-.588v.3zm.468-.06l2.244 3.012.24-.18-2.244-3.012-.24.18zm2.486 3.01l2.16-3.013-.244-.174-2.16 3.012.244.174zm2.038-2.95h.564v-.3h-.564v.3zm.414-.15V66h.3v-5.4h-.3zm.15 5.25h-.624v.3h.624v-.3zm-.474.15v-4.452h-.3V66h.3zm-.272-4.54l-2.1 2.916.244.176 2.1-2.916-.244-.176zm-1.978 2.854h-.036v.3h.036v-.3zm.084.06l-2.172-2.916-.24.18 2.172 2.916.24-.18zm-2.442-2.826V66h.3v-4.452h-.3zM110.685 46H109.2V28.504H97.482V46h-1.485V27.1h14.688V46zm4.445-9.45c0-2.754.9-5.058 2.7-6.912 1.8-1.854 4.059-2.781 6.777-2.781 2.7 0 4.95.918 6.75 2.754 1.818 1.818 2.727 4.131 2.727 6.939 0 2.754-.909 5.067-2.727 6.939-1.8 1.836-4.05 2.754-6.75 2.754s-4.959-.909-6.777-2.727c-1.8-1.818-2.7-4.14-2.7-6.966zm1.566 0c0 2.34.756 4.311 2.268 5.913 1.53 1.584 3.411 2.376 5.643 2.376 2.304 0 4.194-.792 5.67-2.376 1.494-1.602 2.241-3.573 2.241-5.913 0-2.394-.765-4.365-2.295-5.913-1.512-1.584-3.384-2.376-5.616-2.376-2.25 0-4.131.792-5.643 2.376-1.512 1.566-2.268 3.537-2.268 5.913zM151.238 46h-1.485V28.504h-7.938l-.324 3.564c-.414 4.77-1.053 8.28-1.917 10.53-.342.972-.774 1.728-1.296 2.268-.468.504-.918.837-1.35.999-.432.144-.936.189-1.512.135l.027-1.485c.378.018.702-.036.972-.162s.585-.414.945-.864c.414-.522.783-1.233 1.107-2.133.774-2.196 1.332-5.688 1.674-10.476l.27-3.78h10.827V46zm20.024-16.47L158.545 46h-1.323V27.1h1.485v16.47l12.717-16.47h1.323V46h-1.485V29.53zM182.49 46h-4.32V27.1h4.347l5.832 7.965 5.508-7.965h4.077V46h-4.32V33.958l-5.265 7.371h-.621l-5.238-7.29V46zm22.224 0h-4.347l7.857-18.9h3.861l7.857 18.9h-4.617l-1.566-3.969h-7.479L204.714 46zm7.425-8.019l-2.106-5.346-2.133 5.346h4.239zm20.66 8.235h-4.32v-2.538c-2.556-.018-4.599-.675-6.129-1.971-1.512-1.296-2.268-3.105-2.268-5.427 0-2.304.765-4.086 2.295-5.346 1.53-1.278 3.564-1.962 6.102-2.052v-1.998h4.32v1.998c2.538.054 4.572.738 6.102 2.052 1.566 1.332 2.349 3.114 2.349 5.346 0 2.304-.774 4.104-2.322 5.4-1.548 1.314-3.591 1.98-6.129 1.998v2.538zm3.861-9.936c0-1.026-.324-1.845-.972-2.457-.63-.612-1.593-.936-2.889-.972v6.858c1.368-.018 2.349-.306 2.943-.864.612-.558.918-1.413.918-2.565zm-11.988 0c0 2.232 1.269 3.375 3.807 3.429v-6.858c-1.26.036-2.214.36-2.862.972-.63.612-.945 1.431-.945 2.457z" fill="#fff"/><path opacity=".9" d="M15.506 68.187c-2.53-6.092-.949-20.694.158-27.233 6.556-18.07 33.812-40.8 52.242-16.602 19.65 25.801-14.913 56.992-28.541 57.911-10.593.715-20.697-6.462-23.859-14.076z" fill="#62D0FF"/><path opacity=".9" d="M27.278 61.794c-2.53-6.091-13.08 2.83-13.19-5.09C12.222 26.136 39.686.549 58.107 17.522c26.216 24.156 2.705 61.78-10.923 62.698-10.593.715-16.745-10.812-19.906-18.426z" fill="#54B934"/><path opacity=".9" d="M67.933 64.787c-10.274 8.922-35.895-.97-47.42-7.03-4.082-2.019-6.366-9.69-9.59-17.506-3.225-7.815-5.25-15.57 5.143-21.966 10.393-6.397 47.11 10.444 52.195 18.552 5.086 8.108 12.515 16.797-.328 27.95z" fill="#ED49AA"/><path opacity=".8" d="M10.94 41.571c-1.967 16.891 4.297 18.82 7.676 17.672 16.593.031 47.86-6.192 40.175-31.33C49.186-3.511 30.037 10.75 25.878 13.178c-4.16 2.426-12.478 7.28-14.938 28.393z" fill="#FFD23C"/><path opacity=".9" d="M61.725 66.318C41.885 77.38 23.938 70 20.221 66.91c-6.793-6.018-2.294-18.956-5.8-24.898-4.172-7.072-.511-20.39 16.532-25.806 26.3-8.357 58.41 34.7 30.772 50.112z" fill="#000" fill-opacity=".9"/><path d="M50.213 50.797c-.477 0-.93-.046-1.36-.14a3.59 3.59 0 01-1.106-.465 2.422 2.422 0 01-.738-.744c-.184-.295-.277-.652-.277-1.07v-4.746l-4.587 5.21-4.633-5.21v4.745c0 .42-.092.776-.276 1.07a2.125 2.125 0 01-.738.745 3.611 3.611 0 01-1.106.465 6.47 6.47 0 01-1.383.14h-.346V39.14h.738c.2 0 .453.008.76.024.323 0 .654.046.992.14a7.12 7.12 0 011.06.371c.353.155.676.388.968.698l3.965 4.188 3.918-4.188a2.74 2.74 0 01.945-.698 7.2 7.2 0 011.06-.372c.353-.093.692-.14 1.014-.14.323-.015.584-.023.784-.023h.715v11.656h-.369z" fill="#fff"/><path d="M50.213 50.797c-.477 0-.93-.046-1.36-.14a3.59 3.59 0 01-1.106-.465 2.422 2.422 0 01-.738-.744c-.184-.295-.277-.652-.277-1.07v-4.746l-4.587 5.21-4.633-5.21v4.745c0 .42-.092.776-.276 1.07a2.125 2.125 0 01-.738.745 3.611 3.611 0 01-1.106.465 6.47 6.47 0 01-1.383.14h-.346V39.14h.738c.2 0 .453.008.76.024.323 0 .654.046.992.14a7.12 7.12 0 011.06.371c.353.155.676.388.968.698l3.965 4.188 3.918-4.188a2.74 2.74 0 01.945-.698 7.2 7.2 0 011.06-.372c.353-.093.692-.14 1.014-.14.323-.015.584-.023.784-.023h.715v11.656h-.369z" fill="#fff"/></svg>