<svg width="25" height="25" fill="none" xmlns="http://www.w3.org/2000/svg"><path d="M22.2 17.4c-1.62-1.291-3.265-2.074-4.866-.784l-.955.78c-.7.565-2 3.21-7.026-2.18-5.026-5.383-2.035-6.22-1.335-6.782l.96-.78c1.593-1.293.992-2.92-.156-4.595l-.693-1.015C6.975.373 5.719-.725 4.123.566l-.863.702C2.555 1.748.582 3.305.104 6.263c-.576 3.549 1.24 7.613 5.402 12.073C9.66 22.798 13.73 25.039 17.585 25c3.203-.033 5.137-1.635 5.742-2.217l.866-.704c1.592-1.29.603-2.602-1.019-3.897L22.2 17.4z" fill="#fff"/></svg>