<svg width="37" height="37" fill="none" xmlns="http://www.w3.org/2000/svg"><mask id="a" maskUnits="userSpaceOnUse" x="0" y="0" width="37" height="37" fill="#000"><path fill="#fff" d="M0 0h37v37H0z"/><path d="M33.95 22.113v-7.226a2.602 2.602 0 002.05-2.54c0-2.056-2.282-3.284-3.993-2.189l-5.165-5.165C27.937 3.281 26.708 1 24.652 1c-2.533 0-3.572 3.283-1.474 4.735l-2.314 5.606-3.94-3.94 4.092-1.7a.547.547 0 10-.42-1.01l-4.508 1.874-1.559-1.56C15.636 3.298 14.413 1 12.348 1c-2.057 0-3.285 2.281-2.19 3.993l-5.165 5.165C3.281 9.063 1 10.292 1 12.348a2.6 2.6 0 003.067 2.554L5.562 18.5l-1.495 3.598A2.6 2.6 0 001 24.652c0 2.057 2.281 3.284 3.993 2.19l5.165 5.165C9.063 33.719 10.292 36 12.348 36c1.244 0 2.287-.88 2.539-2.05h7.226a2.602 2.602 0 002.54 2.05 2.6 2.6 0 002.597-2.598 2.6 2.6 0 00-2.598-2.597c-1.245 0-2.287.88-2.539 2.05H15.09l16.18-6.724c1.46 2.103 4.73 1.034 4.73-1.479 0-1.244-.88-2.287-2.05-2.539zm-3.103-9.302l-1.514.625L26.201 5.9l5.028 5.027a2.582 2.582 0 00-.382 1.884zm.418 1.01c.37.535.934.925 1.59 1.066v7.024l-3.102-7.465 1.512-.624zm.574 8.495l-6.18-6.18 3.083-1.273 3.097 7.453zm3.067-9.968c0 .829-.674 1.504-1.504 1.504a1.506 1.506 0 01-1.504-1.504 1.505 1.505 0 013.008 0zM24.652 2.094a1.505 1.505 0 010 3.008 1.506 1.506 0 01-1.504-1.504c0-.83.675-1.504 1.504-1.504zm-.463 4.06c.31.055.617.056.933-.002l3.2 7.701-3.5 1.445-3.12-3.12 2.487-6.025zm-.462 9.596l-4.22 1.742 1.742-4.219 2.478 2.477zM11.878 6.152a2.582 2.582 0 001.877-.373l1.24 1.24-4.203 1.746 1.086-2.613zM9.36 9.36L5.9 10.8l4.899-4.9L9.36 9.36zm2.988-7.266c.829 0 1.504.674 1.504 1.504 0 .829-.675 1.504-1.504 1.504a1.505 1.505 0 010-3.008zM2.094 12.348a1.505 1.505 0 013.008 0c0 .829-.675 1.504-1.504 1.504-.83 0-1.504-.675-1.504-1.504zm2.983 2.133a2.592 2.592 0 001.075-2.603l2.613-1.086-2.61 6.283-1.078-2.594zm1.077 5.444l1.093 2.63-1.512.623a2.62 2.62 0 00-.658-.66l1.077-2.593zm0 4.264l1.513-.625 3.132 7.536-5.028-5.027a2.582 2.582 0 00.382-1.884zm-4.06.463c0-.829.674-1.504 1.504-1.504.829 0 1.504.675 1.504 1.504a1.505 1.505 0 01-3.008 0zm10.254 10.254a1.505 1.505 0 010-3.008c.829 0 1.504.675 1.504 1.504 0 .83-.675 1.504-1.504 1.504zm12.304-3.008a1.505 1.505 0 11-1.504 1.504c0-.829.675-1.504 1.504-1.504zm-10.17.025a2.592 2.592 0 00-2.604-1.075l-3.2-7.701 2.131-.88a.547.547 0 10-.417-1.011l-2.134.88L6.747 18.5l3.45-8.303 5.635-2.342 4.58 4.58-2.33 5.646-3.719 1.535a.547.547 0 00.417 1.011l2.712-1.12-3.901 9.45a.547.547 0 001.01.418L18.92 18.92l5.645-2.331 6.657 6.656a2.582 2.582 0 00-.373 1.878l-16.369 6.8zm18.92-5.767a1.505 1.505 0 01-1.504-1.504c0-.829.675-1.504 1.504-1.504a1.505 1.505 0 010 3.008z"/></mask><path d="M33.95 22.113v-7.226a2.602 2.602 0 002.05-2.54c0-2.056-2.282-3.284-3.993-2.189l-5.165-5.165C27.937 3.281 26.708 1 24.652 1c-2.533 0-3.572 3.283-1.474 4.735l-2.314 5.606-3.94-3.94 4.092-1.7a.547.547 0 10-.42-1.01l-4.508 1.874-1.559-1.56C15.636 3.298 14.413 1 12.348 1c-2.057 0-3.285 2.281-2.19 3.993l-5.165 5.165C3.281 9.063 1 10.292 1 12.348a2.6 2.6 0 003.067 2.554L5.562 18.5l-1.495 3.598A2.6 2.6 0 001 24.652c0 2.057 2.281 3.284 3.993 2.19l5.165 5.165C9.063 33.719 10.292 36 12.348 36c1.244 0 2.287-.88 2.539-2.05h7.226a2.602 2.602 0 002.54 2.05 2.6 2.6 0 002.597-2.598 2.6 2.6 0 00-2.598-2.597c-1.245 0-2.287.88-2.539 2.05H15.09l16.18-6.724c1.46 2.103 4.73 1.034 4.73-1.479 0-1.244-.88-2.287-2.05-2.539zm-3.103-9.302l-1.514.625L26.201 5.9l5.028 5.027a2.582 2.582 0 00-.382 1.884zm.418 1.01c.37.535.934.925 1.59 1.066v7.024l-3.102-7.465 1.512-.624zm.574 8.495l-6.18-6.18 3.083-1.273 3.097 7.453zm3.067-9.968c0 .829-.674 1.504-1.504 1.504a1.506 1.506 0 01-1.504-1.504 1.505 1.505 0 013.008 0zM24.652 2.094a1.505 1.505 0 010 3.008 1.506 1.506 0 01-1.504-1.504c0-.83.675-1.504 1.504-1.504zm-.463 4.06c.31.055.617.056.933-.002l3.2 7.701-3.5 1.445-3.12-3.12 2.487-6.025zm-.462 9.596l-4.22 1.742 1.742-4.219 2.478 2.477zM11.878 6.152a2.582 2.582 0 001.877-.373l1.24 1.24-4.203 1.746 1.086-2.613zM9.36 9.36L5.9 10.8l4.899-4.9L9.36 9.36zm2.988-7.266c.829 0 1.504.674 1.504 1.504 0 .829-.675 1.504-1.504 1.504a1.505 1.505 0 010-3.008zM2.094 12.348a1.505 1.505 0 013.008 0c0 .829-.675 1.504-1.504 1.504-.83 0-1.504-.675-1.504-1.504zm2.983 2.133a2.592 2.592 0 001.075-2.603l2.613-1.086-2.61 6.283-1.078-2.594zm1.077 5.444l1.093 2.63-1.512.623a2.62 2.62 0 00-.658-.66l1.077-2.593zm0 4.264l1.513-.625 3.132 7.536-5.028-5.027a2.582 2.582 0 00.382-1.884zm-4.06.463c0-.829.674-1.504 1.504-1.504.829 0 1.504.675 1.504 1.504a1.505 1.505 0 01-3.008 0zm10.254 10.254a1.505 1.505 0 010-3.008c.829 0 1.504.675 1.504 1.504 0 .83-.675 1.504-1.504 1.504zm12.304-3.008a1.505 1.505 0 11-1.504 1.504c0-.829.675-1.504 1.504-1.504zm-10.17.025a2.592 2.592 0 00-2.604-1.075l-3.2-7.701 2.131-.88a.547.547 0 10-.417-1.011l-2.134.88L6.747 18.5l3.45-8.303 5.635-2.342 4.58 4.58-2.33 5.646-3.719 1.535a.547.547 0 00.417 1.011l2.712-1.12-3.901 9.45a.547.547 0 001.01.418L18.92 18.92l5.645-2.331 6.657 6.656a2.582 2.582 0 00-.373 1.878l-16.369 6.8zm18.92-5.767a1.505 1.505 0 01-1.504-1.504c0-.829.675-1.504 1.504-1.504a1.505 1.505 0 010 3.008z" fill="#8A8D97"/><path d="M33.95 22.113v-7.226a2.602 2.602 0 002.05-2.54c0-2.056-2.282-3.284-3.993-2.189l-5.165-5.165C27.937 3.281 26.708 1 24.652 1c-2.533 0-3.572 3.283-1.474 4.735l-2.314 5.606-3.94-3.94 4.092-1.7a.547.547 0 10-.42-1.01l-4.508 1.874-1.559-1.56C15.636 3.298 14.413 1 12.348 1c-2.057 0-3.285 2.281-2.19 3.993l-5.165 5.165C3.281 9.063 1 10.292 1 12.348a2.6 2.6 0 003.067 2.554L5.562 18.5l-1.495 3.598A2.6 2.6 0 001 24.652c0 2.057 2.281 3.284 3.993 2.19l5.165 5.165C9.063 33.719 10.292 36 12.348 36c1.244 0 2.287-.88 2.539-2.05h7.226a2.602 2.602 0 002.54 2.05 2.6 2.6 0 002.597-2.598 2.6 2.6 0 00-2.598-2.597c-1.245 0-2.287.88-2.539 2.05H15.09l16.18-6.724c1.46 2.103 4.73 1.034 4.73-1.479 0-1.244-.88-2.287-2.05-2.539zm-3.103-9.302l-1.514.625L26.201 5.9l5.028 5.027a2.582 2.582 0 00-.382 1.884zm.418 1.01c.37.535.934.925 1.59 1.066v7.024l-3.102-7.465 1.512-.624zm.574 8.495l-6.18-6.18 3.083-1.273 3.097 7.453zm3.067-9.968c0 .829-.674 1.504-1.504 1.504a1.506 1.506 0 01-1.504-1.504 1.505 1.505 0 013.008 0zM24.652 2.094a1.505 1.505 0 010 3.008 1.506 1.506 0 01-1.504-1.504c0-.83.675-1.504 1.504-1.504zm-.463 4.06c.31.055.617.056.933-.002l3.2 7.701-3.5 1.445-3.12-3.12 2.487-6.025zm-.462 9.596l-4.22 1.742 1.742-4.219 2.478 2.477zM11.878 6.152a2.582 2.582 0 001.877-.373l1.24 1.24-4.203 1.746 1.086-2.613zM9.36 9.36L5.9 10.8l4.899-4.9L9.36 9.36zm2.988-7.266c.829 0 1.504.674 1.504 1.504 0 .829-.675 1.504-1.504 1.504a1.505 1.505 0 010-3.008zM2.094 12.348a1.505 1.505 0 013.008 0c0 .829-.675 1.504-1.504 1.504-.83 0-1.504-.675-1.504-1.504zm2.983 2.133a2.592 2.592 0 001.075-2.603l2.613-1.086-2.61 6.283-1.078-2.594zm1.077 5.444l1.093 2.63-1.512.623a2.62 2.62 0 00-.658-.66l1.077-2.593zm0 4.264l1.513-.625 3.132 7.536-5.028-5.027a2.582 2.582 0 00.382-1.884zm-4.06.463c0-.829.674-1.504 1.504-1.504.829 0 1.504.675 1.504 1.504a1.505 1.505 0 01-3.008 0zm10.254 10.254a1.505 1.505 0 010-3.008c.829 0 1.504.675 1.504 1.504 0 .83-.675 1.504-1.504 1.504zm12.304-3.008a1.505 1.505 0 11-1.504 1.504c0-.829.675-1.504 1.504-1.504zm-10.17.025a2.592 2.592 0 00-2.604-1.075l-3.2-7.701 2.131-.88a.547.547 0 10-.417-1.011l-2.134.88L6.747 18.5l3.45-8.303 5.635-2.342 4.58 4.58-2.33 5.646-3.719 1.535a.547.547 0 00.417 1.011l2.712-1.12-3.901 9.45a.547.547 0 001.01.418L18.92 18.92l5.645-2.331 6.657 6.656a2.582 2.582 0 00-.373 1.878l-16.369 6.8zm18.92-5.767a1.505 1.505 0 01-1.504-1.504c0-.829.675-1.504 1.504-1.504a1.505 1.505 0 010 3.008z" stroke="#8A8D97" stroke-width=".4" mask="url(#a)"/><path d="M12.341 20.343h0a.647.647 0 00-.36.846h0a.647.647 0 00.844.354h0a.647.647 0 00.36-.847h0a.647.647 0 00-.844-.353z" fill="#8A8D97" stroke="#8A8D97" stroke-width=".2"/></svg>