<svg width="39" height="37" fill="none" xmlns="http://www.w3.org/2000/svg"><path d="M37.422 20.25l-.018-.005h-.019c-.517 0-3.02-.09-5.39-1.482-2.357-1.384-4.6-4.065-4.6-9.288a.757.757 0 00-.746-.746.757.757 0 00-.747.746c0 5.223-2.243 7.904-4.595 9.288-2.363 1.391-4.855 1.482-5.35 1.482-.16 0-.33.05-.455.166a.508.508 0 00-.135.118l-.037.046-.006.008a.32.32 0 01-.023.027l-.017.018-.01.021a.83.83 0 000 .73c.119.24.403.405.684.405h.045c.518 0 3.01.091 5.367 1.482 2.346 1.384 4.578 4.064 4.578 9.288 0 .404.343.747.747.747a.757.757 0 00.746-.747c0-5.2 2.232-7.881 4.578-9.271 2.358-1.397 4.85-1.499 5.366-1.499.296 0 .519-.178.671-.381l.008-.011.006-.012a.715.715 0 00-.052-.743.675.675 0 00-.272-.264 1.32 1.32 0 00-.324-.123zm-4.082.742c-2.433.87-5.34 2.698-6.691 6.582-1.35-3.884-4.258-5.712-6.691-6.582 2.433-.87 5.34-2.7 6.69-6.583 1.351 3.884 4.259 5.713 6.692 6.583zM6.827 7.398h-.01l-.011.001c-.384.055-.68.339-.68.745 0 .404.343.747.747.747.288 0 1.633.045 2.9.793 1.256.742 2.456 2.183 2.456 5.022 0 .4.336.74.735.746a.592.592 0 00.496-.181.74.74 0 00.216-.52c0-2.837 1.211-4.28 2.473-5.02 1.273-.75 2.618-.794 2.883-.794h.046c.411 0 .747-.35.747-.793a.757.757 0 00-.747-.746c-.265 0-1.61-.045-2.883-.794-1.262-.741-2.473-2.183-2.473-5.02a.757.757 0 00-.746-.747.757.757 0 00-.747.746c0 2.838-1.211 4.28-2.472 5.021-1.274.749-2.619.794-2.884.794h0-.001 0-.001 0-.001 0-.001 0-.001 0-.001 0-.001 0-.001 0-.001 0-.001 0-.001 0-.001 0-.001 0-.001 0-.001 0-.001 0-.001 0-.001 0-.001 0-.001 0-.001 0-.001 0-.001 0-.001 0-.001 0-.001 0-.001 0-.001 0-.001 0-.001 0-.001 0-.001 0-.001 0-.001 0-.001 0-.001 0-.001 0-.001 0-.001 0-.001 0-.001 0-.001 0-.001 0-.001 0-.001 0zm9.046.743a6.303 6.303 0 00-2.94 2.904c-.71-1.468-1.846-2.352-2.946-2.897a6.304 6.304 0 002.94-2.904c.709 1.468 1.845 2.352 2.946 2.897zm-2.072 19.95c-.264 0-1.61-.045-2.883-.794-1.262-.74-2.473-2.183-2.473-5.02a.757.757 0 00-.746-.747.757.757 0 00-.747.746c0 2.838-1.21 4.28-2.472 5.021-1.274.75-2.619.794-2.884.794h0-.001 0-.001 0-.001 0-.001 0-.001 0-.001 0-.001 0-.001 0-.001 0-.001 0-.001 0-.001 0-.001 0-.001 0-.001 0-.001 0-.001 0-.001 0-.001 0-.001 0-.001 0-.001 0-.001 0-.001 0-.001 0-.001 0-.001 0-.001 0-.001 0-.001 0-.001 0-.001 0-.001 0-.001 0-.001 0-.001 0-.001 0-.001 0-.001 0-.001 0-.001 0-.001 0-.001 0-.001 0-.001 0v.15l-.022-.148c-.383.055-.679.338-.679.745 0 .404.342.746.746.746.289 0 1.633.045 2.9.794 1.256.74 2.456 2.182 2.456 5.021 0 .396.33.733.723.746a.516.516 0 00.509-.147.783.783 0 00.216-.553c0-2.838 1.21-4.28 2.472-5.021 1.274-.749 2.619-.794 2.883-.794h.046c.412 0 .747-.35.747-.792a.757.757 0 00-.747-.747zm-3.205.789a6.305 6.305 0 00-2.943 2.91c-.74-1.47-1.844-2.356-2.943-2.903a6.303 6.303 0 002.94-2.904c.71 1.468 1.845 2.352 2.946 2.897z" fill="#8A8D97" stroke="#8A8D97" stroke-width=".3"/></svg>