<svg width="22" height="106" fill="none" xmlns="http://www.w3.org/2000/svg"><path d="M9.178 6.105H7.231a3.533 3.533 0 01-.396-1.617c0-1.195.356-2.156 1.067-2.882C8.642.843 9.57.462 10.685.462c1.1 0 2.02.381 2.761 1.144.704.726 1.056 1.639 1.056 2.739 0 .543-.136 1.13-.407 1.76h-1.958c.52-.491.781-1.063.781-1.716 0-.601-.19-1.1-.572-1.496-.447-.462-1.012-.693-1.694-.693-.667 0-1.206.213-1.617.638-.41.41-.616.939-.616 1.584 0 .609.253 1.17.759 1.683zm5.159 3.184v5.335H7V12.93h5.907v-1.99h-2.519c-1.43 0-2.394-.246-2.893-.738-.389-.389-.583-.939-.583-1.65 0-.235.03-.462.088-.682h1.518a1.19 1.19 0 00-.066.418c0 .286.08.51.242.671.22.22.733.33 1.54.33h4.103zm0 12.191h-1.43v-2.453h-1.419v2.332h-1.43v-2.332H8.43v2.453H7v-4.147h7.337v4.147zm0 3.19v5.258H8.408v.825H5.35v-1.518H7v-4.5H5.35v-1.517h3.058c.066.344.202.62.407.825.176.19.418.333.726.429.315.102.583.16.803.176.227.014.524.022.891.022h3.102zm-1.408 1.628H11.29c-.792 0-1.364-.048-1.716-.143a2.635 2.635 0 01-1.166-.66v2.76h4.521v-1.957zm1.408 5.71V33.9l-3.388 1.54 3.388 1.474v1.826L7 35.386V33.56l2.112 1.066 5.225-2.617zm-2.805 10.396v.98c.77.146 1.419.49 1.947 1.033.682.69 1.023 1.606 1.023 2.75 0 1.159-.352 2.094-1.056 2.805-.726.74-1.635 1.111-2.728 1.111-1.151 0-2.09-.37-2.816-1.11-.711-.712-1.067-1.65-1.067-2.817 0-1.136.363-2.064 1.089-2.783a3.437 3.437 0 012.178-1.012v-.957H7V40.71h7.337v1.694h-2.805zm1.408 4.785c0-.616-.194-1.118-.583-1.507-.447-.447-1.012-.67-1.694-.67-.653 0-1.188.197-1.606.593-.44.41-.66.946-.66 1.606 0 .572.183 1.053.55 1.441.433.462 1.016.693 1.749.693.667 0 1.214-.205 1.639-.616.403-.388.605-.902.605-1.54zM7 62.156v-8.712h7.337v1.694H8.43v2.079h5.907v1.694H8.43v2.079h5.907v1.694H8.43v.99H5.35v-1.518H7zm7.337 3.528v1.694H9.541l4.884 3.399v1.496H7v-1.694h4.807l-4.895-3.4v-1.495h7.425zm0 9.296v1.694H9.541l4.884 3.399v1.496H7v-1.694h4.807l-4.895-3.399V74.98h7.425zm2.42 4.312l-.495 1.166a2.12 2.12 0 01-.99-.836c-.205-.345-.308-.796-.308-1.353 0-.55.103-.997.308-1.342a2.12 2.12 0 01.99-.836l.495 1.166c-.235.095-.41.216-.528.363-.125.169-.187.392-.187.671 0 .264.062.48.187.649.132.169.308.286.528.352z" fill="#CFCFCF"/><path d="M7 96l4 4 4-4" stroke="#CFCFCF" stroke-width="1.3" stroke-linecap="round" stroke-linejoin="round"/></svg>