<svg width="22" height="109" fill="none" xmlns="http://www.w3.org/2000/svg"><path d="M14.337 20.803v6.171H7V25.28h5.907v-2.783H7v-1.694h7.337zm0 8.877v2.585c0 .829-.202 1.47-.605 1.925-.418.477-1.012.715-1.782.715-.719 0-1.294-.209-1.727-.627-.433-.425-.649-1.048-.649-1.87v-1.034H7V29.68h7.337zm-1.386 1.694H10.96v.605c0 .418.092.723.275.913.183.184.425.275.726.275.308 0 .546-.091.715-.275.183-.19.275-.506.275-.946v-.572zm1.386 9.848h-1.43V38.77h-1.419v2.332h-1.43V38.77H8.43v2.453H7v-4.147h7.337v4.147zm0 3.19v5.258H8.408v.825H5.35v-1.518H7v-4.5H5.35V42.96h3.058c.066.344.202.62.407.825.176.19.418.333.726.429.315.102.583.161.803.176.227.014.524.022.891.022h3.102zm-1.408 1.628H11.29c-.792 0-1.364-.048-1.716-.143a2.633 2.633 0 01-1.166-.66v2.76h4.521V46.04zm1.408 12.487v1.694H7v-1.694h7.337zM7 52.51h7.337v1.694h-2.86v1.012c0 .909-.205 1.58-.616 2.013-.389.41-.931.616-1.628.616-.697 0-1.236-.198-1.617-.594-.41-.433-.616-1.13-.616-2.09V52.51zm3.113 1.694H8.364v.748c0 .403.066.696.198.88.14.212.367.319.682.319.337 0 .568-.103.693-.308.117-.162.176-.455.176-.88v-.76zm4.224 9.434v5.258H8.408v.825H5.35v-1.518H7v-4.499H5.35v-1.518h3.058c.066.345.202.62.407.825.176.19.418.334.726.43.315.102.583.16.803.175.227.015.524.022.891.022h3.102zm-1.408 1.628H11.29c-.792 0-1.364-.047-1.716-.143a2.633 2.633 0 01-1.166-.66v2.761h4.521v-1.958zm1.408 5.711v1.892l-3.388 1.54 3.388 1.474v1.826L7 74.354v-1.826l2.112 1.067 5.225-2.618zM7 88.391v-8.712h7.337v1.694H8.43v2.079h5.907v1.694H8.43v2.079h5.907v1.694H8.43v.99H5.35V88.39H7zm7.337 3.527v1.694H9.541l4.884 3.4v1.495H7v-1.694h4.807l-4.895-3.399v-1.496h7.425zm0 9.297v1.694H9.541l4.884 3.399v1.496H7v-1.694h4.807l-4.895-3.399v-1.496h7.425zm2.42 4.312l-.495 1.166a2.122 2.122 0 01-.99-.836c-.205-.345-.308-.796-.308-1.353 0-.55.103-.998.308-1.342.242-.382.572-.66.99-.836l.495 1.166c-.235.095-.41.216-.528.363-.125.168-.187.392-.187.671 0 .264.062.48.187.649.132.168.308.286.528.352z" fill="#CFCFCF"/><path d="M7 7l4-4 4 4" stroke="#CFCFCF" stroke-width="1.3" stroke-linecap="round" stroke-linejoin="round"/></svg>