<svg width="98" height="22" fill="none" xmlns="http://www.w3.org/2000/svg"><path d="M1.095 5.995h3.06c1.16 0 2.01.255 2.55.765.48.46.72 1.09.72 1.89 0 .5-.11.925-.33 1.275-.2.33-.48.575-.84.735.56.09 1.02.315 1.38.675.43.43.645 1.025.645 1.785 0 .83-.26 1.505-.78 2.025-.59.57-1.47.855-2.64.855H1.095V5.995zm2.28 1.8v2.265h.375c.52 0 .91-.095 1.17-.285.27-.19.405-.485.405-.885 0-.36-.13-.64-.39-.84-.22-.17-.62-.255-1.2-.255h-.36zm0 3.975v2.43h.555c.85 0 1.42-.135 1.71-.405.22-.2.33-.48.33-.84 0-.35-.105-.62-.315-.81-.27-.25-.82-.375-1.65-.375h-.63zm8.126-5.775h8.415V16h-2.31V7.945h-3.795V16h-2.31V5.995zm17.76 0v1.95h-3.344V9.88h3.18v1.95h-3.18v2.22h3.345V16h-5.655V5.995h5.655zm3.375 0h3.525c1.13 0 2.005.275 2.625.825.65.57.975 1.38.975 2.43 0 .98-.285 1.765-.855 2.355-.58.59-1.43.885-2.55.885h-1.41V16h-2.31V5.995zm2.31 1.89V10.6h.825c.57 0 .985-.125 1.245-.375.25-.25.375-.58.375-.99 0-.42-.125-.745-.375-.975-.26-.25-.69-.375-1.29-.375h-.78zm13.429-1.89v1.95H45.03V9.88h3.18v1.95h-3.18v2.22h3.345V16H42.72V5.995h5.655zm4.35 0h7.17v8.085h1.124v4.17h-2.07V16h-6.135v2.25h-2.07v-4.17c.47-.09.845-.275 1.125-.555.26-.24.455-.57.585-.99.14-.43.22-.795.24-1.095.02-.31.03-.715.03-1.215v-4.23zm2.22 1.92v2.235c0 1.08-.066 1.86-.196 2.34-.17.62-.47 1.15-.9 1.59h3.765V7.915h-2.67z" fill="#fff"/><path d="M92 17l5.25-5.25L92 6.5" stroke="#fff" stroke-width="1.5" stroke-linecap="round" stroke-linejoin="round"/></svg>