<svg width="93" height="22" fill="none" xmlns="http://www.w3.org/2000/svg"><path d="M39.405 5.995v3.81h3.99v-3.81h2.31V16h-2.31v-4.245h-3.99V16h-2.31V5.995h2.31zM56.021 16l-.75-1.89h-3.78L50.726 16h-2.4L52.36 5.995h2.115L58.42 16h-2.4zm-3.855-3.66h2.475l-1.23-3.36-1.245 3.36zm9.379-3.675l-1.02-1.77c.4-.33.855-.585 1.365-.765.63-.24 1.28-.36 1.95-.36 1.17 0 2.065.305 2.685.915.51.5.765 1.155.765 1.965 0 .5-.13.935-.39 1.305-.23.33-.55.575-.96.735.51.15.92.385 1.23.705.45.45.675 1.045.675 1.785 0 .78-.27 1.45-.81 2.01-.68.69-1.685 1.035-3.015 1.035-.96 0-1.76-.145-2.4-.435-.52-.22-1.035-.57-1.545-1.05l1.29-1.695c.3.35.64.625 1.02.825.41.21.865.315 1.365.315.48 0 .865-.1 1.155-.3.32-.23.48-.54.48-.93 0-.33-.12-.595-.36-.795-.32-.25-.955-.375-1.905-.375h-.375v-1.86h.345c.82 0 1.37-.13 1.65-.39a.862.862 0 00.285-.675c0-.32-.135-.58-.405-.78-.24-.18-.59-.27-1.05-.27-.39 0-.765.085-1.125.255-.3.13-.6.33-.9.6zM77.698 16l-.75-1.89h-3.78L72.403 16h-2.4l4.035-10.005h2.115L80.098 16h-2.4zm-3.855-3.66h2.475l-1.23-3.36-1.245 3.36zm10.173-6.345h7.17v8.085h1.125v4.17h-2.07V16h-6.135v2.25h-2.07v-4.17c.47-.09.845-.275 1.125-.555.26-.24.455-.57.585-.99.14-.43.22-.795.24-1.095.02-.31.03-.715.03-1.215v-4.23zm2.22 1.92v2.235c0 1.08-.065 1.86-.195 2.34-.17.62-.47 1.15-.9 1.59h3.765V7.915h-2.67z" fill="#fff"/><path d="M6 17l-5-5.25L6 6.5" stroke="#fff" stroke-width="1.5" stroke-linecap="round" stroke-linejoin="round"/></svg>